<svg xmlns="http://www.w3.org/2000/svg" viewBox="0 0 200 200" fill-rule="evenodd">
  <style>
    .ink { fill: #52525b; }
    .ink-line {
      fill: none;
      stroke: #52525b;
      stroke-width: 1.05;
      stroke-linecap: round;
      stroke-linejoin: round;
    }
    .ring { fill: none; stroke: #52525b; stroke-width: 0.85; }
    @media (prefers-color-scheme: dark) {
      .ink { fill: #d4d4d8; }
      .ink-line, .ring { stroke: #d4d4d8; }
    }
  </style>

  <!--
    Monochrome: zinc-600 on light, zinc-300 on dark; clear = negative / paper.
    Monarch-like paper-cut: thick margin spots, veined cells, 3/4 “penché” left. No antennae.
  -->
  <g transform="rotate(-32 100 100)">
    <g class="ink">
      <!-- left forewing -->
      <path
        d="M 100,86
          C 15,0 0,0 0,50
          C 0,85 55,100  98,100
          C 100,100  100,92  100,86 Z
        M 8,32 m-20,0a20,7.5 0 1,0 40,0a20,7.5 0 1,0-40,0Z
        M 48,60 m-16,0a16,5.5 0 1,0 32,0a16,5.5 0 1,0-32,0Z
        M 64,80 m-10,0a10,3.2 0 1,0 20,0a10,3.2 0 1,0-20,0Z
        M 6,20m-.8,0a.8,.5 0 1,0 1.6,0a.8,.5 0 1,0-1.6,0Z
        M 3,36m-.75,0a.75,.45 0 1,0 1.5,0a.75,.45 0 1,0-1.5,0Z
        M 0,52m-.5,0a.5,.35 0 1,0 1,0a.5,.35 0 1,0-1,0Z
        M 0,80m-.55,0a.55,.4 0 1,0 1.1,0a.55,.4 0 1,0-1.1,0Z
        M 18,14m-1,0a1,.65 0 1,0 2,0a1,.65 0 1,0-2,0Z
        M 34,6m-1.2,0a1.2,.8 0 1,0 2.4,0a1.2,.8 0 1,0-2.4,0Z
        M 2,100m-.45,0a.45,.3 0 1,0 .9,0a.45,.3 0 1,0-.9,0Z
      " />
      <!-- right forewing (foreshortened) -->
      <path
        d="M 100,86
          C 185,0 200,0 200,50
          C 200,85  145,100  102,100
          C 100,100  100,92  100,86 Z
        M 172,34 m-16,0a16,6.2 0 1,0 32,0a16,6.2 0 1,0-32,0Z
        M 150,64 m-12,0a12,4.5 0 1,0 24,0a12,4.5 0 1,0-24,0Z
        M 138,82 m-8,0a8,2.8 0 1,0 16,0a8,2.8 0 1,0-16,0Z
        M 194,6m-1,0a1,.65 0 1,0 2,0a1,.65 0 1,0-2,0Z
        M 188,22m-.7,0a.7,.45 0 1,0 1.4,0a.7,.45 0 1,0-1.4,0Z
        M 200,48m-.55,0a.55,.4 0 1,0 1.1,0a.55,.4 0 1,0-1.1,0Z
        M 200,98m-.45,0a.45,.3 0 1,0 .9,0a.45,.3 0 1,0-.9,0Z
      " />
      <!-- left hindwing -->
      <path
        d="M 100,100
          C 0,100 0,200  90,199
          C 98,155  100,115  100,100 Z
        M 20,120 m-10,0a10,3.2 0 1,0 20,0a10,3.2 0 1,0-20,0Z
        M 12,158 m-6,0a6,2.2 0 1,0 12,0a6,2.2 0 1,0-12,0Z
        M 44,134 m-5,0a5,1.6 0 1,0 10,0a5,1.6 0 1,0-10,0Z
        M 32,160 m-2.4,0a2.4,2.4 0 1,0 4.8,0a2.4,2.4 0 1,0-4.8,0Z
        M 66,150 m-1.1,0a1.1,1.1 0 1,0 2.2,0a1.1,1.1 0 1,0-2.2,0Z
      " />
      <!-- right hindwing -->
      <path
        d="M 100,100
          C 200,100 200,200  110,199
          C 102,155  100,115  100,100 Z
        M 180,120 m-8,0a8,2.3 0 1,0 16,0a8,2.3 0 1,0-16,0Z
        M 192,150 m-5,0a5,1.8 0 1,0 10,0a5,1.8 0 1,0-10,0Z
        M 168,155 m-2.2,0a2.2,2.2 0 1,0 4.4,0a2.2,2.2 0 1,0-4.4,0Z
        M 134,150 m-0.9,0a.9,.9 0 1,0 1.8,0a.9,.9 0 1,0-1.8,0Z
      " />
    </g>

    <g class="ink-line">
      <path d="M 100,86 0,0" />
      <path d="M 100,86 0,0" />
      <path d="M 100,86 0,0" />
      <path d="M 100,86 0,0" />
      <path d="M 100,86 0,0" />
      <path d="M 100,86 0,0" />
      <path d="M 100,86 0,0" />
      <path d="M 100,86 0,0" />
      <path d="M 100,86 0,0" />
      <path d="M 100,86 0,0" />
      <path d="M 100,86 0,0" />
      <path d="M 100,86 0,0" />
      <path d="M 100,86 0,0" />
      <path d="M 100,86 0,0" />
      <path d="M 100,86 0,0" />
      <path d="M 100,86 0,0" />
      <path d="M 100,86 0,0" />
      <path d="M 100,86 0,0" />
      <path d="M 100,86 0,0" />
      <path d="M 100,86 0,0" />
      <path d="M 100,86 0,0" />
      <path d="M 100,86 0,0" />
      <path d="M 100,86 0,0" />
      <path d="M 100,86 0,0" />
      <path d="M 100,86 0,0" />
      <path d="M 100,86 0,0" />
      <path d="M 100,86 0,0" />
      <path d="M 100,86 0,0" />
      <path d="M 100,86 0,0" />
      <path d="M 100,86 0,0" />
      <path d="M 100,86 0,0" />
      <path d="M 100,86 0,0" />
      <path d="M 100,86 0,0" />
      <path d="M 100,86 0,0" />
      <path d="M 100,86 0,0" />
      <path d="M 100,86 0,0" />
      <path d="M 100,86 0,0" />
      <path d="M 100,86 0,0" />
      <path d="M 100,86 0,0" />
      <path d="M 100,86 0,0" />
      <path d="M 100,86 0,0" />
      <path d="M 100,86 0,0" />
      <path d="M 100,86 0,0" />
      <path d="M 100,86 0,0" />
      <path d="M 100,86 0,0" />
      <path d="M 100,86 0,0" />
      <path d="M 100,86 0,0" />
      <path d="M 100,86 0,0" />
      <path d="M 100,86 0,0" />
      <path d="M 100,86 0,0" />
      <path d="M 100,86 0,0" />
      <path d="M 100,86 0,0" />
      <path d="M 100,86 0,0" />
      <path d="M 100,86 0,0" />
      <path d="M 100,86 0,0" />
      <path d="M 100,86 0,0" />
      <path d="M 100,86 0,0" />
      <path d="M 100,86 0,0" />
      <path d="M 100,86 0,0" />
      <path d="M 100,86 0,0" />
      <path d="M 100,86 0,0" />
      <path d="M 100,86 0,0" />
      <path d="M 100,86 0,0" />
      <path d="M 100,86 0,0" />
      <path d="M 100,86 0,0" />
      <path d="M 100,86 0,0" />
      <path d="M 100,86 0,0" />
      <path d="M 100,86 0,0" />
      <path d="M 100,86 0,0" />
      <path d="M 100,86 0,0" />
      <path d="M 100,86 0,0" />
      <path d="M 100,86 0,0" />
      <path d="M 100,86 0,0" />
      <path d="M 100,86 0,0" />
    </g>

    <path
      class="ring"
      d="M 32,160m-2.4,0a2.4,2.4 0 1,0 4.8,0a2.4,2.4 0 1,0-4.4,0"
    />
    <path
      class="ring"
      d="M 168,155m-2.2,0a2.2,2.2 0 1,0 4.4,0a2.2,2.2 0 1,0-4,0"
    />

    <path
      class="ink"
      d="M 100,60
         C 103,60  105,64  105,72
         C 104,95  101,118  100,130
         C 99,118  97,95  96,72
         C 95,64  97,60  100,60 Z
      "
    />
  </g>
</svg>
