<svg xmlns="http://www.w3.org/2000/svg" viewBox="0 0 1024 1024" aria-label="Butterfly favicon">
  <style>
    :root {
      --favicon-color: #52525b;
      color: var(--favicon-color);
    }
    .icon { fill: currentColor; }
  </style>
<path d="M0 0 C0.78 0.37 1.56 0.74 2.37 1.12 C30.29 15.48 43.69 44.84 52.98 73.1 C55.7 81.68 58 90.04 59 99 C59.11 99.97 59.22 100.93 59.34 101.93 C59.77 109.47 57.88 116.41 55.87 123.62 C53.59 131.87 52.47 139.6 53.75 148.12 C53.85 148.78 53.85 148.78 54.33 152.07 C54.75 154.52 55.21 156.97 55.73 159.39 C57.91 169.48 58.56 179.52 59.11 189.8 C59.58 198.54 60.26 207.16 61.62 215.81 C63.59 228.46 62.98 238.25 59.21 250.57 C57.4 257.66 58.62 263.44 60.47 270.37 C62.84 279.34 62.05 286.86 60 295.81 C58.17 304.33 57.05 312.32 58.5 321 C61.44 338.62 55.9 358.8 45.93 373.41 C32.32 391.62 12.93 402.05 -8 410 C-7.33 410.09 -6.65 410.19 -5.96 410.29 C20.16 414.04 44.97 419.16 62.25 440.81 C69.88 451.86 75.73 464.12 81.85 476.04 C84.65 481.48 87.47 486.91 90.42 492.27 C99.82 509.35 112.8 534.03 107.16 553.95 C105.9 557.05 104.5 560.01 103 563 C102.31 564.39 101.61 565.78 100.92 567.17 C99.85 569.31 98.78 571.44 97.68 573.57 C94.73 579.31 92.97 584.48 94 591 C95.16 593.76 96.46 596.37 97.91 599 C99.63 603.72 100.1 608.33 98.15 613.07 C96.96 615.18 95.69 617.21 94.38 619.25 C87.28 631.09 84.39 643.77 81.37 657.11 C78.4 670.22 73.7 679.94 61.98 687.38 C57.91 689.59 53.71 691.5 49.5 693.44 C36 699.68 27.12 708.05 18.27 719.98 C11.91 728.53 5.01 736.23 -6 738 C-8.08 738 -10.17 737.95 -12.25 737.88 C-19.67 737.68 -25.3 740.05 -32 743 C-41.15 746.94 -51.01 747.64 -60.56 744.5 C-77.63 737.34 -91.38 724.88 -104.31 712 C-105.23 711.09 -106.15 710.17 -107.1 709.23 C-113.14 703.12 -118.66 696.73 -124 690 C-125.13 688.59 -126.27 687.18 -127.41 685.78 C-127.92 685.14 -128.43 684.51 -128.96 683.85 C-134.45 677.05 -140.07 670.43 -146 664 C-147.44 662.4 -148.88 660.79 -150.31 659.19 C-152.83 656.38 -155.38 653.59 -157.95 650.83 C-166.23 641.97 -173.8 632.76 -181 623 C-180.44 628.39 -179.49 633.25 -177.88 638.45 C-177.67 639.14 -177.46 639.83 -177.24 640.54 C-176.54 642.78 -175.84 645.02 -175.12 647.25 C-175 647.64 -175 647.64 -174.39 649.58 C-169.61 664.68 -164.03 679.35 -158 694 C-137.51 743.92 -137.51 743.92 -141 764 C-142.65 766.45 -142.65 766.45 -145 768 C-151.45 768.05 -154.86 764.06 -159.21 759.85 C-163.49 755.47 -167.3 750.88 -171 746 C-171.46 745.41 -171.91 744.83 -172.38 744.22 C-182.94 730.56 -191.42 715.72 -199.98 700.77 C-207.23 688.15 -214.56 675.58 -222.19 663.19 C-222.73 662.3 -223.27 661.42 -223.83 660.51 C-224.33 659.69 -224.84 658.88 -225.36 658.04 C-225.8 657.33 -226.24 656.62 -226.69 655.89 C-227.98 654.03 -229.35 652.54 -231 651 C-230.79 651.96 -230.59 652.92 -230.38 653.91 C-226.01 674.44 -222.29 694.95 -219.44 715.75 C-217.28 731.44 -214.63 746.62 -210.38 761.88 C-204.39 783.41 -206.45 815.33 -215 836 C-217.72 839.19 -220.17 841.44 -224.06 843 C-224.84 843.33 -225.61 843.65 -226.41 843.99 C-228.24 844.71 -230.1 845.37 -231.97 846.01 C-240.2 848.98 -244.14 852.82 -249 860 C-253.98 866.91 -258.38 872.76 -267.24 874.42 C-273.1 874.95 -278.88 875.04 -284.75 874.96 C-285.55 874.95 -286.34 874.94 -287.15 874.93 C-290.44 874.88 -293.72 874.83 -297.01 874.75 C-312.12 874.41 -325.35 877.1 -339.81 881.19 C-356.56 885.68 -369.74 882.84 -385.6 876.68 C-396.93 872.3 -408.27 868.18 -420.31 866.38 C-432.92 864.45 -439.5 857.36 -447.5 847.88 C-454.5 839.91 -461.23 837.05 -471.21 834.15 C-492.06 827.82 -501.95 806.49 -511.6 788.56 C-526.14 761.11 -537.01 728.03 -528.05 696.9 C-523.51 684.41 -516.04 673.2 -509 662 C-509.26 662.13 -509.26 662.13 -510.58 662.76 C-538.71 676.2 -568.78 681.34 -599 671 C-621.25 663.01 -640.37 648.63 -659.19 634.68 C-669.45 627.07 -679.85 619.82 -690.7 613.07 C-704.77 604.31 -717.35 594.9 -729.4 583.5 C-732.98 580.14 -736.61 576.83 -740.24 573.53 C-741.93 571.98 -743.61 570.41 -745.26 568.82 C-754.25 560.31 -765.05 555.3 -776.31 550.5 C-786.37 546.18 -794.1 540.59 -802 533 C-802.8 532.26 -803.6 531.52 -804.43 530.76 C-826.07 510.19 -845.18 479.23 -847.2 448.96 C-847.48 431.01 -842.14 415.96 -831 402 C-830.52 401.36 -830.04 400.73 -829.54 400.07 C-800.11 363.07 -738.17 349.84 -693.88 344.63 C-691.25 344.37 -688.63 344.17 -686 344 C-684.75 343.91 -683.51 343.82 -682.22 343.72 C-595.23 337.77 -488.81 350.51 -360.65 415.59 C-354.17 419.52 -347.61 423.3 -341 427 C-340.34 423.37 -339.68 419.74 -339 416 C-339.53 415.9 -339.53 415.9 -342.19 415.38 C-346.67 414.12 -348.4 411.77 -351 408 C-351 407.34 -351 406.68 -351 406 C-351.7 405.92 -352.4 405.83 -353.12 405.75 C-359.32 404.13 -363.54 400.19 -367 395 C-367.56 391.5 -367.56 391.5 -367 388 C-366.34 387.09 -365.68 386.17 -365 385.23 C-362.06 380.47 -362.19 376.22 -362.9 370.82 C-364.94 363.75 -370.31 360.14 -376 356 C-377.2 355.08 -378.41 354.16 -379.61 353.23 C-383.34 350.39 -387.15 347.68 -391 345 C-391.59 344.58 -392.18 344.17 -392.79 343.74 C-421.99 323.3 -459.33 301.18 -495.9 300.75 C-497.87 300.72 -499.83 300.69 -501.79 300.65 C-504.85 300.61 -507.91 300.56 -510.97 300.52 C-549.99 299.99 -549.99 299.99 -563 291 C-563 290.34 -563 289.68 -563 289 C-524.36 275.75 -465.73 296.6 -431.1 313.28 C-410.01 323.89 -391 337.67 -372.62 352.36 C-368.84 355.38 -364.96 358.21 -361 361 C-361.11 360.4 -361.11 360.4 -361.69 357.38 C-362.21 353.08 -361.53 350.62 -359 347 C-355.48 343.98 -352.51 343.67 -348.06 343.7 C-345.51 344.07 -343.37 345.02 -341 346 C-341.01 344.87 -341.02 343.75 -341.03 342.59 C-341.56 280.23 -333.38 206.37 -291 157 C-290.44 156.32 -289.88 155.64 -289.31 154.94 C-286.79 151.9 -284.41 149.07 -281 147 C-280.34 147 -279.68 147 -279 147 C-277.83 161.63 -284.28 172.83 -293.44 183.71 C-294.95 185.46 -296.47 187.2 -298 188.94 C-325.43 220.28 -328.35 262.95 -332.75 302.69 C-332.86 303.64 -332.96 304.6 -333.07 305.58 C-334.32 316.85 -335.28 328.07 -335.67 339.41 C-335.7 340.23 -335.73 341.05 -335.76 341.9 C-335.79 342.62 -335.81 343.34 -335.83 344.09 C-336 346 -336 346 -337 349 C-336.07 349.31 -335.14 349.62 -334.19 349.94 C-332.12 350.62 -330.06 351.31 -328 352 C-326.37 351.99 -324.75 351.95 -323.12 351.88 C-320.06 351.87 -317.95 352.01 -315 352.94 C-311.91 356.13 -311.32 359.64 -311 364 C-311.23 365.4 -311.5 366.8 -311.81 368.19 C-312 372 -312 372 -310.59 373.66 C-309.32 374.68 -308.03 375.68 -306.73 376.65 C-304.28 378.56 -303.57 379.94 -303 383 C-303.18 387.73 -303.96 392.39 -305 397 C-302.69 398.65 -300.38 400.3 -298 402 C-295.3 393.73 -294.95 385.4 -294.71 376.76 C-294.27 361.09 -292.88 345.56 -291 330 C-290.94 329.49 -290.94 329.49 -290.63 326.92 C-287.29 300.62 -277.23 275.82 -266 252 C-265.44 250.81 -264.88 249.63 -264.31 248.41 C-258.52 236.13 -252.6 223.91 -246.18 211.95 C-241.89 203.92 -237.88 195.76 -233.83 187.61 C-226.85 173.57 -219.83 159.59 -212 146 C-211.53 145.17 -211.06 144.35 -210.58 143.5 C-193.34 113.23 -173.75 81.93 -148.59 57.59 C-147 56 -147 56 -145 53.44 C-142.66 50.58 -140.05 48.32 -137.24 45.93 C-134.94 43.95 -132.73 41.88 -130.5 39.81 C-97.43 10.16 -44.63 -21.32 0 0 Z M-11 10 C-11.44 12.12 -11.44 12.12 -11 15 C-8.03 18.6 -5.08 20.72 -0.56 21.88 C0.28 21.92 1.13 21.96 2 22 C1.78 18.21 1.06 17.06 -1.69 14.31 C-4.58 12.08 -7.45 10.93 -11 10 Z M-69 28 C-69.39 28.3 -69.39 28.3 -71.38 29.81 C-73.66 32.89 -73.29 35.28 -73 39 C-68.57 41.84 -65.6 42.37 -60.57 41.57 C-52.9 39.86 -45.33 38.05 -40 32 C-38.88 28.94 -38.88 28.94 -39 26 C-41.07 22.66 -42.71 22.08 -46.5 21.06 C-54.49 20.43 -62.84 22.92 -69 28 Z M15 34 C13 36 13 36 12.38 38.69 C13.23 43.2 15.46 44.77 18.86 47.68 C21 49 21 49 25 49 C25.99 45.86 26.22 44.47 24.81 41.44 C20.48 35.61 20.48 35.61 16.88 34.12 C16.26 34.08 15.64 34.04 15 34 Z M-89.08 76.7 C-91.76 78.76 -94.39 80.87 -97 83 C-97.53 83.43 -98.06 83.87 -98.61 84.32 C-106.39 90.7 -113.84 97.41 -121.18 104.29 C-123.18 106.16 -125.18 108.03 -127.18 109.89 C-131.47 113.91 -135.74 117.95 -140 122 C-140.58 122.55 -141.15 123.09 -141.75 123.66 C-154.1 135.42 -163.75 148.72 -173 163 C-173.66 163.99 -174.32 164.98 -175 166 C-174.79 170.88 -173.26 173.43 -170 177 C-164.9 176.56 -162.54 175.2 -158.88 171.69 C-158.05 170.91 -157.22 170.13 -156.37 169.32 C-155.59 168.56 -154.8 167.79 -154 167 C-153.24 166.28 -152.48 165.57 -151.7 164.83 C-150 163 -150 163 -150 161 C-149.5 160.84 -149.5 160.84 -147 160 C-145.56 158.54 -145.56 158.54 -144 156.62 C-136.17 147.43 -127.51 139.42 -118 132 C-117.33 131.48 -116.66 130.95 -115.97 130.41 C-111.37 126.81 -106.75 123.22 -102.13 119.65 C-100.27 118.21 -98.41 116.76 -96.55 115.3 C-76.81 99.92 -56.58 87.27 -33.43 77.67 C-32.48 77.28 -31.54 76.89 -30.57 76.48 C-28.73 75.72 -26.89 74.97 -25.04 74.23 C-20 72.15 -16.45 70.28 -13 66 C-12.19 63.19 -12.19 63.19 -12 61 C-16.45 56.55 -21.01 55.88 -27 55 C-26.64 54.81 -26.64 54.81 -24.85 53.83 C-24.39 53.57 -24.39 53.57 -22.06 52.25 C-21.15 51.74 -20.23 51.23 -19.29 50.7 C-17 49 -17 49 -16.18 46.8 C-16.12 46.2 -16.06 45.61 -16 45 C-37.14 38.96 -73.05 64.68 -89.08 76.7 Z M-121 55 C-149.04 76.73 -170.91 100.28 -189 131 C-189.43 131.73 -189.86 132.46 -190.3 133.21 C-191.6 135.44 -192.87 137.68 -194.12 139.94 C-194.32 140.27 -194.32 140.27 -195.31 141.98 C-198.68 148.21 -198.91 153.77 -197 160.56 C-196.67 161.37 -196.34 162.17 -196 163 C-190.17 163.74 -187.1 162.38 -182.38 158.95 C-174.13 152.2 -167.59 144.21 -161.26 135.7 C-152.34 123.72 -143.22 112.5 -131.91 102.68 C-128.88 100.02 -126.09 97.14 -123.3 94.23 C-119.65 90.48 -115.91 87.07 -111.81 83.81 C-107.25 80.15 -103.06 76.26 -98.94 72.12 C-98.38 71.57 -97.82 71.01 -97.24 70.43 C-91 64.1 -91 64.1 -91 59 C-94.9 57.05 -98.89 58.02 -103 59 C-105.72 60.01 -108.33 61.22 -110.94 62.5 C-111.57 62.8 -112.2 63.1 -112.85 63.41 C-124.69 69.51 -134.18 79.74 -143.5 89.06 C-144.1 89.66 -144.69 90.25 -145.31 90.86 C-153.13 98.68 -160.32 106.43 -166.05 115.96 C-168.11 119.18 -170.22 121.41 -173 124 C-171.03 118.19 -168.66 113.49 -165.12 108.5 C-164.65 107.82 -164.17 107.13 -163.68 106.43 C-153.3 91.81 -141.63 77.15 -127.82 65.63 C-124.56 62.72 -121.79 59.36 -119 56 C-119.33 55.84 -119.33 55.84 -121 55 Z M28 64 C27.41 70.57 28.74 75.27 32 81 C32.66 81.66 33.32 82.32 34 83 C36.06 82.75 36.06 82.75 38 82 C39.84 78.31 39.36 74.03 39 70 C36.97 64.97 36.97 64.97 35 63 C29.24 62.76 29.24 62.76 28 64 Z M-25 87 C-25.67 87.22 -26.33 87.45 -27.02 87.68 C-58.4 98.42 -86.54 116.01 -112.29 136.64 C-114.03 138.03 -115.79 139.39 -117.56 140.75 C-140.54 158.45 -140.54 158.45 -146 168 C-146 168.66 -146 169.32 -146 170 C-145.72 170.12 -145.72 170.12 -144.28 170.73 C-140.44 172.4 -136.79 174.07 -133.25 176.31 C-130 178 -130 178 -127.69 177.86 C-124.27 176.77 -121.64 174.93 -118.75 172.88 C-107.85 165.36 -96.4 158.73 -85 152 C-84.63 151.78 -84.63 151.78 -82.77 150.68 C-75.93 146.64 -68.98 142.9 -61.85 139.42 C-57.48 137.27 -53.18 135.04 -48.89 132.73 C-36.41 126.06 -24 120.08 -10.66 115.28 C4.02 109.98 4.02 109.98 9 105 C8.94 102.52 8.94 102.52 8 100 C5.71 98.64 5.71 98.64 2.94 97.69 C2.02 97.36 1.1 97.04 0.15 96.7 C-0.2 96.58 -0.2 96.58 -2 96 C-1.42 95.4 -0.85 94.79 -0.25 94.17 C0.12 93.77 0.12 93.77 2 91.75 C2.37 91.36 2.37 91.36 4.25 89.36 C6 87 6 87 6 83 C-3.22 78.39 -15.99 83.92 -25 87 Z M40 105 C37.4 107.71 37.01 108.89 36.81 112.75 C36.87 113.82 36.94 114.89 37 116 C37.83 116.33 37.83 116.33 42 118 C44.74 115.18 45.98 113.82 46.06 109.81 C45 107 45 107 42.44 105.62 C41.63 105.42 40.83 105.21 40 105 Z M-83.48 159.66 C-86.28 161.15 -89.09 162.6 -91.9 164.05 C-118.7 177.83 -118.7 177.83 -125 185 C-124.61 185.4 -124.22 185.79 -123.82 186.2 C-119.49 190.88 -117.35 195.39 -115.31 201.38 C-114.76 202.99 -114.19 204.6 -113.61 206.21 C-113.37 206.92 -113.13 207.62 -112.89 208.35 C-112 210 -112 210 -109 211 C-106.29 210.02 -103.7 208.96 -101.06 207.81 C-75.99 197.35 -49.53 189.52 -23.41 182.13 C-22.31 181.81 -21.21 181.5 -20.07 181.18 C-17.96 180.57 -15.83 179.98 -13.71 179.4 C-12.76 179.13 -11.81 178.86 -10.83 178.58 C-9.99 178.35 -9.16 178.11 -8.29 177.87 C-5.81 176.93 -4.04 175.69 -2 174 C-12.35 173.76 -22.14 174.27 -32.38 176 C-33.72 176.22 -35.06 176.43 -36.4 176.65 C-50.31 178.93 -64.15 181.62 -77.99 184.32 C-78.86 184.49 -79.73 184.66 -80.63 184.83 C-82.25 185.15 -83.88 185.47 -85.51 185.79 C-94.06 187.46 -102.29 188.11 -111 188 C-100 184.26 -89.02 181.6 -77.61 179.4 C-61.35 176.26 -45.18 172.79 -29.07 168.96 C-27.09 168.49 -25.11 168.03 -23.13 167.56 C6.34 160.66 6.34 160.66 14 153 C13.71 149.52 13.27 148.26 10.69 145.81 C5.03 142 5.03 142 1 142 C1 141.34 1 140.68 1 140 C1.56 139.91 2.11 139.83 2.69 139.74 C8.32 138.7 13.82 137.12 18 133 C18 131.68 18 130.36 18 129 C-5.49 113.34 -62.68 148.45 -83.48 159.66 Z M35 137 C30.97 141.66 30.39 145.31 30.59 151.43 C31.13 154.84 32.46 156.7 35 159 C36.89 158.73 36.89 158.73 39 158 C41.93 153.52 42.49 148.22 42 143 C41.31 140.12 41.31 140.12 40 138 C37.38 137.19 37.38 137.19 35 137 Z M-154 178 C-156 181 -156 181 -155.62 183.69 C-155.42 184.45 -155.21 185.21 -155 186 C-152 187 -152 187 -149.5 185.88 C-146.78 183.84 -145.54 182 -144 179 C-144.66 178.01 -145.32 177.02 -146 176 C-149.78 176 -150.96 176.08 -154 178 Z M-200 180 C-201.44 182.06 -201.44 182.06 -202 184 C-201.67 184.66 -201.34 185.32 -201 186 C-194.09 187.5 -194.09 187.5 -190.12 185.69 C-188 184 -188 184 -186 182 C-186.54 178.46 -186.54 178.46 -188 177 C-192.84 176.55 -195.9 177.39 -200 180 Z M37.25 181.56 C35.53 184.92 35.61 187.26 36 191 C37.31 193.88 37.31 193.88 39 196 C39.99 196.33 40.98 196.66 42 197 C44.7 194.71 45.48 193.14 45.88 189.62 C46.13 186.43 46 185 44.81 181.94 C44.21 181.3 43.62 180.66 43 180 C39 180 39 180 37.25 181.56 Z M-141 237.5 C-142 239 -142 239 -142.44 241.94 C-142.29 242.62 -142.15 243.3 -142 244 C-137.32 245.03 -133.71 244.73 -129 244 C-122.55 243.49 -118.4 244.37 -113 248 C-110.94 249.78 -108.97 251.59 -107.05 253.51 C-103.93 255.78 -100.87 256.29 -97.03 255.7 C-94.77 255.16 -92.54 254.55 -90.3 253.91 C-89.47 253.68 -88.63 253.45 -87.78 253.21 C-85.18 252.49 -82.59 251.75 -80 251 C-79.22 250.77 -78.44 250.55 -77.64 250.32 C-72.97 248.96 -68.32 247.57 -63.67 246.18 C-45.33 240.7 -26.9 235.74 -8.33 231.1 C17.71 224.53 17.71 224.53 22 219 C22 218.01 22 217.02 22 216 C17.62 213.94 13.44 213.39 8.69 212.88 C7.95 212.79 7.21 212.7 6.44 212.61 C4.63 212.4 2.81 212.2 1 212 C1.82 211.61 2.64 211.23 3.48 210.83 C4.56 210.31 5.64 209.79 6.75 209.25 C7.82 208.74 8.88 208.23 9.98 207.7 C13.67 205.62 16.33 203.66 17.94 199.69 C18.02 195.96 16.98 193.1 15 190 C10.63 185.47 7.17 183.79 0.94 183.56 C-40.57 183.42 -112.37 206.63 -141 237.5 Z M-205 199 C-210.39 205.81 -214.68 214.64 -213.81 223.5 C-213 227 -213 227 -211 229 C-203.93 228.76 -201.17 226.05 -196.51 221.1 C-191.12 214.44 -185.75 206.71 -185 198 C-185.97 195.25 -186.38 194.31 -189 193 C-195.84 192.02 -200.09 194.51 -205 199 Z M-176 201 C-181.03 208.37 -185.66 215.78 -184 225 C-179.14 230.6 -171.67 232.59 -164.5 233.13 C-159.1 232.85 -155.36 230.36 -151.62 226.62 C-148.4 221.42 -146.97 216.1 -148 210 C-149.67 205.05 -151.73 200.35 -156.19 197.38 C-163.3 194.13 -171.01 194.63 -176 201 Z M-222 207 C-227.23 212.88 -231.07 220.39 -231.31 228.31 C-231 232 -231 232 -229 235 C-226.64 234.33 -226.64 234.33 -224 233 C-222.67 230.57 -222.67 230.57 -221.75 227.69 C-221.44 226.74 -221.12 225.8 -220.8 224.82 C-219.53 220.34 -218.88 216.35 -218.94 211.69 C-218.95 210.8 -218.96 209.92 -218.96 209.01 C-218.98 208.35 -218.99 207.68 -219 207 C-219.99 207 -220.98 207 -222 207 Z M43 213 C40.52 216.73 40.62 218.59 41 223 C42.19 225.88 42.19 225.88 44 228 C46.69 228.81 46.69 228.81 49 229 C50.82 225.08 51.16 223.5 49.81 219.31 C47.28 214.69 47.28 214.69 45 213 C44.34 213 43.68 213 43 213 Z M8.19 235.79 C7.23 235.98 6.27 236.18 5.28 236.39 C4.77 236.5 4.77 236.5 2.15 237.06 C1.07 237.29 -0.01 237.52 -1.12 237.75 C-4.62 238.49 -8.12 239.24 -11.62 240 C-12.81 240.25 -14 240.51 -15.23 240.77 C-31.97 244.36 -48.61 248.05 -65 253 C-66.36 253.41 -67.72 253.81 -69.08 254.22 C-73.52 255.54 -77.95 256.89 -82.38 258.25 C-83.08 258.46 -83.79 258.68 -84.52 258.9 C-86.52 259.51 -88.52 260.14 -90.52 260.77 C-91.68 261.12 -92.83 261.48 -94.02 261.85 C-96.81 262.93 -98.74 264.07 -101 266 C-94.52 265.35 -88.41 263.97 -82.11 262.34 C-79.95 261.79 -77.79 261.24 -75.63 260.7 C-75.07 260.55 -75.07 260.55 -72.23 259.83 C-53.77 255.11 -35.3 250.55 -16.66 246.62 C-9.64 245.14 -2.72 243.45 4.18 241.47 C4.88 241.27 5.59 241.07 6.32 240.86 C10.26 239.7 13.59 238.28 17 236 C13.74 234.95 11.52 235.08 8.19 235.79 Z M-199.44 254.56 C-201.58 257.91 -202.3 260.39 -201.56 264.31 C-201.38 264.87 -201.19 265.43 -201 266 C-206.78 262.27 -206.78 262.27 -208.44 260.19 C-210 259 -210 259 -213.31 259 C-217.52 260.14 -220.27 261.65 -223 265 C-226.06 270.47 -228.17 275.94 -228.06 282.25 C-228.04 283.49 -228.02 284.73 -228 286 C-224.36 287.21 -221.82 287.4 -218 287 C-215.31 284.62 -215.31 284.62 -213 282 C-210.86 280.84 -210.86 280.84 -209 280 C-208.69 280.71 -208.37 281.42 -208.05 282.15 C-207.62 283.07 -207.19 283.99 -206.75 284.94 C-206.33 285.85 -205.91 286.77 -205.48 287.71 C-204 290 -204 290 -201.83 290.82 C-201.22 290.88 -200.62 290.94 -200 291 C-197.04 287.64 -196.08 284.31 -195 280 C-194.59 280.55 -194.18 281.11 -193.76 281.68 C-193.22 282.4 -192.68 283.13 -192.12 283.88 C-191.59 284.59 -191.06 285.31 -190.51 286.05 C-189 288 -189 288 -187 290 C-182.07 289.9 -179.2 286.98 -175.81 283.75 C-175.25 283.22 -174.68 282.69 -174.1 282.14 C-166.01 274.34 -156.48 264.23 -154.44 252.88 C-155.23 248.83 -157.12 246.88 -160 244 C-172.65 235.75 -190.42 245.09 -199.44 254.56 Z M-244.69 249.38 C-249.69 255.06 -251.78 261.25 -251.45 268.82 C-251 271 -251 271 -248.81 273.62 C-245.74 275.13 -244.35 275.44 -241 275 C-235.81 270.87 -231.86 265.66 -231 259 C-231.17 255.58 -231.35 253.08 -233.12 250.12 C-237.07 247.76 -240.58 247.27 -244.69 249.38 Z M-150 267 C-150.57 267.55 -151.15 268.1 -151.74 268.67 C-160.33 276.89 -168.07 285.33 -175 295 C-172.39 296.3 -171.51 295.78 -168.74 295 C-168.31 294.87 -168.31 294.87 -166.12 294.26 C-165.19 293.99 -164.27 293.72 -163.31 293.44 C-162.84 293.3 -162.84 293.3 -160.44 292.6 C-125.78 282.3 -125.78 282.3 -117.5 268.5 C-116.8 265.01 -117.14 262.45 -118 259 C-119.82 256.29 -121.07 254.46 -124 253 C-134.58 251.41 -143.09 260.23 -150 267 Z M40 254 C36.91 258.95 36.67 264.19 37.69 269.75 C39.05 273.12 40.09 274.86 43 277 C44.32 277 45.64 277 47 277 C49.72 272.92 49.63 269.79 49 265 C47.63 260.83 46.12 257.12 43 254 C42.01 254 41.02 254 40 254 Z M-13 262.19 C-13.32 262.25 -13.32 262.25 -14.95 262.57 C-45.94 268.68 -76.45 277.53 -106.75 286.38 C-107.72 286.66 -108.69 286.94 -109.68 287.23 C-146.46 297.99 -146.46 297.99 -162.31 304.12 C-163.14 304.43 -163.97 304.74 -164.82 305.06 C-178.68 310.36 -186 316.89 -193 330 C-194.58 333.57 -195.22 336.08 -195 340 C-190.79 341.4 -188.31 339.61 -184.5 337.81 C-182.85 337.06 -181.2 336.31 -179.55 335.55 C-178.65 335.14 -177.76 334.73 -176.83 334.3 C-156.87 325.12 -136.65 316.67 -116.25 308.51 C-112.14 306.86 -108.03 305.2 -103.93 303.52 C-95.7 300.14 -87.42 297 -79 294.12 C-78.17 293.84 -77.35 293.55 -76.5 293.26 C-70.1 291.13 -63.67 289.96 -57 289 C-57.64 289.25 -58.28 289.49 -58.94 289.74 C-66.35 292.58 -73.75 295.43 -81.15 298.28 C-82.93 298.97 -84.71 299.66 -86.5 300.34 C-110.52 309.59 -134.1 319.7 -157.44 330.56 C-158.07 330.86 -158.71 331.15 -159.37 331.46 C-165.72 334.42 -171.99 337.38 -178 341 C-174.07 342.31 -171.73 341.08 -168.03 339.68 C-167.68 339.55 -167.68 339.55 -165.9 338.9 C-164.37 338.34 -162.85 337.77 -161.33 337.21 C-158.91 336.3 -156.49 335.41 -154.07 334.53 C-150.71 333.3 -147.35 332.06 -143.99 330.83 C-136.41 328.05 -128.8 325.32 -121.19 322.62 C-120.84 322.5 -120.84 322.5 -119.06 321.87 C-106.82 317.54 -94.48 313.61 -82 310 C-82.69 310.24 -83.39 310.49 -84.1 310.74 C-87.59 311.97 -91.08 313.2 -94.56 314.44 C-94.9 314.56 -94.9 314.56 -96.59 315.16 C-105.82 318.42 -115.03 321.73 -124.22 325.09 C-128.19 326.54 -132.16 327.99 -136.12 329.44 C-137.12 329.8 -138.12 330.17 -139.15 330.54 C-154.49 336.13 -169.91 341.38 -185.53 346.16 C-202.7 351.48 -202.7 351.48 -208.31 358.5 C-208.79 359.09 -209.26 359.68 -209.75 360.29 C-214 366.08 -214 366.08 -214 369 C-206.68 367.67 -200.54 365.19 -193.81 362.06 C-165.11 349.14 -134.91 339.71 -105 330 C-104.62 329.88 -104.62 329.88 -102.72 329.26 C-68.43 318.09 -33.18 309.53 2.09 302.09 C14.6 299.4 14.6 299.4 19 295 C19.56 292.81 19.56 292.81 19 290 C15.42 285.4 10.94 282.01 6 279 C6.63 278.61 7.25 278.23 7.9 277.83 C8.72 277.31 9.53 276.79 10.38 276.25 C11.19 275.74 12 275.23 12.84 274.7 C15.12 272.91 16.02 271.7 17 269 C17 266.5 17 266.5 16 264 C11.74 259.96 8.44 259.7 2.89 259.81 C-2.49 260.16 -7.72 261.15 -13 262.19 Z M-196 298 C-198.5 299.75 -198.5 299.75 -201 302 C-201 303.32 -201 304.64 -201 306 C-198 307 -198 307 -195.38 305.81 C-193 304 -193 304 -192.19 301.81 C-192.13 301.21 -192.06 300.62 -192 300 C-193.32 299.34 -194.64 298.68 -196 298 Z M-260 300 C-260.7 301.03 -261.4 302.06 -262.12 303.12 C-262.32 303.42 -262.32 303.42 -263.32 304.88 C-264.36 308.12 -263.32 309.91 -262 313 C-260.35 316.17 -258.57 319.27 -256.75 322.35 C-254.84 325.74 -253.99 327.53 -254.06 331.52 C-253.98 336.29 -252.04 338.58 -249.19 342.25 C-248.96 342.56 -248.96 342.56 -247.82 344.1 C-245.71 346.93 -243.53 349.54 -241 352 C-237.18 349.23 -234.27 346.12 -231.23 342.55 C-227.76 338.59 -224.14 334.76 -220.53 330.92 C-217.85 328.06 -215.27 325.22 -213 322 C-214.49 318.2 -216.76 316.39 -220 314 C-221.98 315.65 -223.96 317.3 -226 319 C-225.67 316.69 -225.34 314.38 -225 312 C-228.34 309.97 -230.58 309.9 -234.44 310.19 C-239.65 310.29 -239.65 310.29 -242.69 307.75 C-243.45 306.84 -244.21 305.94 -245 305 C-249.8 301.87 -254.33 300.47 -260 300 Z M38.5 309.44 C36.33 313.15 35.98 316.74 36 321 C36.9 324.26 37.62 325.62 40 328 C42 327.81 42 327.81 44 327 C46.96 322.56 46.78 318.21 46 313 C44.56 310.58 43.35 309.66 41 308 C40 308 40 308 38.5 309.44 Z M-194 309 C-194 312 -194 312 -194 312 Z M-196 312 C-203.44 319.83 -209.89 328.28 -216.4 336.89 C-218.77 340.02 -221.19 343.11 -223.62 346.19 C-224.07 346.76 -224.52 347.32 -224.98 347.91 C-225.88 349.05 -226.77 350.18 -227.67 351.32 C-229.89 354.12 -232.1 356.94 -234.31 359.75 C-234.53 360.03 -234.53 360.03 -235.66 361.46 C-238.89 365.57 -242.1 369.7 -245.3 373.83 C-253.67 384.62 -262.1 395.19 -271.42 405.18 C-274.05 408.05 -276.53 410.99 -279 414 C-278.67 414.66 -278.34 415.32 -278 416 C-271.96 411.18 -266.04 406.25 -260.31 401.06 C-259.78 400.59 -259.25 400.12 -258.71 399.63 C-257.43 398.46 -256.21 397.24 -255 396 C-255 395.34 -255 394.68 -255 394 C-254.5 393.84 -254.5 393.84 -252 393 C-250.09 390.92 -250.09 390.92 -247.94 388.19 C-247.14 387.18 -246.33 386.17 -245.51 385.13 C-245.09 384.61 -244.68 384.08 -244.25 383.54 C-242.33 381.17 -240.31 378.88 -238.31 376.56 C-228.22 364.48 -219.7 351.1 -211 338 C-209.57 335.86 -208.15 333.72 -206.72 331.58 C-206.37 331.06 -206.37 331.06 -204.61 328.41 C-201.41 323.61 -198.2 318.8 -195 314 C-195.16 313.67 -195.16 313.67 -196 312 Z M-268 318 C-268.66 319.65 -269.32 321.3 -270 323 C-268.35 324.65 -266.7 326.3 -265 328 C-264.34 327.34 -263.68 326.68 -263 326 C-263.12 323 -263.12 323 -264 320 C-266.06 318.62 -266.06 318.62 -268 318 Z M-2.44 322.81 C-3.41 323.15 -4.37 323.49 -5.37 323.83 C-7.89 324.95 -9.24 325.92 -11 328 C-9.08 327.74 -7.17 327.47 -5.25 327.19 C-4.18 327.04 -3.12 326.89 -2.02 326.73 C1.07 325.98 2.72 325.19 5 323 C5 322.34 5 321.68 5 321 C2.26 321 0.14 321.9 -2.44 322.81 Z M-269.25 337.88 C-271 340 -271 340 -271 342 C-269.5 342.79 -267.97 343.53 -266.44 344.25 C-259.33 348.27 -257 354.75 -254 362 C-251.04 361.39 -249.62 360.75 -247 359 C-248.45 355.97 -250.09 353.18 -251.94 350.38 C-252.44 349.6 -252.95 348.82 -253.46 348.02 C-255 346 -255 346 -258 344 C-259.03 342.02 -260.03 340.02 -261 338 C-261.66 337.34 -262.32 336.68 -263 336 C-267 336 -267 336 -269.25 337.88 Z M-39.8 339.64 C-40.54 339.82 -41.28 340 -42.05 340.18 C-50.28 342.23 -58.29 344.88 -66.31 347.62 C-67.89 348.16 -69.47 348.69 -71.05 349.23 C-74.98 350.56 -78.91 351.9 -82.83 353.25 C-84.84 353.95 -86.86 354.64 -88.88 355.32 C-120.97 366.3 -151.76 380.15 -182.29 394.88 C-190.26 398.7 -198.33 402.27 -206.43 405.8 C-215.3 409.66 -224.07 413.7 -232.84 417.77 C-241.18 421.64 -249.56 425.38 -258 429 C-254.49 430.17 -253.62 429.79 -250.19 428.64 C-249.21 428.31 -248.23 427.99 -247.22 427.65 C-246.15 427.29 -245.08 426.92 -243.98 426.55 C-242.87 426.18 -241.76 425.8 -240.62 425.42 C-236.99 424.21 -233.37 422.98 -229.75 421.75 C-227.25 420.91 -224.75 420.07 -222.26 419.23 C-209.68 415 -197.15 410.67 -184.69 406.12 C-159.73 397.07 -133.94 389.67 -108 384 C-126.68 391.51 -145.49 398.49 -164.51 405.08 C-167.1 405.98 -169.68 406.88 -172.26 407.78 C-187.13 412.98 -202.04 418.07 -217 423 C-213.25 424.25 -211.62 423.59 -207.81 422.59 C-207.17 422.42 -206.54 422.25 -205.88 422.08 C-204.48 421.72 -203.08 421.35 -201.68 420.97 C-199.38 420.36 -197.09 419.76 -194.79 419.16 C-191.38 418.27 -187.97 417.37 -184.56 416.47 C-174.59 413.83 -164.61 411.23 -154.62 408.62 C-153.57 408.35 -152.52 408.08 -151.43 407.79 C-72.05 387.12 -72.05 387.12 -38 383 C-79.21 398.12 -121.44 408.47 -164 419 C-171.73 420.91 -179.46 422.83 -187.19 424.75 C-188.06 424.97 -188.92 425.18 -189.82 425.4 C-209.62 430.34 -229.32 435.64 -249 441 C-249 441.66 -249 442.32 -249 443 C-246.04 445.17 -243.49 446.84 -240 448 C-239.67 448.99 -239.34 449.98 -239 451 C-198.3 444.23 -159 434.49 -119.38 423.08 C-92.27 415.28 -65.22 407.59 -37.7 401.34 C-36.54 401.07 -35.37 400.8 -34.18 400.52 C-32.02 400.03 -29.86 399.54 -27.69 399.08 C-18.33 396.94 -18.33 396.94 -15 393 C-13.86 389.54 -13.86 389.54 -13.19 385.62 C-12.95 384.34 -12.72 383.05 -12.48 381.73 C-11.19 371.7 -11.19 371.7 -14 368 C-16.21 366.6 -18.3 365.41 -20.62 364.25 C-21.24 363.93 -21.85 363.62 -22.48 363.29 C-23.98 362.52 -25.49 361.76 -27 361 C-24.06 359.04 -21.13 357.59 -17.94 356.1 C-15.26 354.58 -13.47 352.97 -12.12 350.19 C-11.93 346.73 -13.12 344.85 -15 342 C-22.41 336.63 -31.38 337.58 -39.8 339.64 Z M4 343 C3.56 346.93 3.4 349.14 5.69 352.44 C8.45 354.3 9.73 354.59 13 354 C14.81 352.88 14.81 352.88 16 351 C16.54 347.37 16.46 345.68 14.38 342.62 C10.65 340.07 7.28 339.72 4 343 Z M-354 351 C-355.25 353.12 -355.25 353.12 -356 355 C-354.25 355.69 -354.25 355.69 -352 356 C-349.75 354.69 -349.75 354.69 -348 353 C-348 352.34 -348 351.68 -348 351 C-346.35 351.33 -344.7 351.66 -343 352 C-344.25 350.5 -344.25 350.5 -346 349 C-349.77 349 -351.01 349 -354 351 Z M35 350 C32.66 353.51 32.59 354.87 33 359 C34.31 361.88 34.31 361.88 36 364 C36.99 364 37.98 364 39 364 C42.19 357.1 42.19 357.1 41.5 353.06 C40 351 40 351 37.38 350.19 C36.59 350.13 35.81 350.06 35 350 Z M-108.86 351.08 C-109.86 351.35 -110.86 351.61 -111.89 351.89 C-112.99 352.19 -114.08 352.5 -115.2 352.81 C-116.35 353.12 -117.5 353.44 -118.68 353.76 C-131.79 357.41 -144.74 361.54 -157.68 365.74 C-161.1 366.85 -164.52 367.95 -167.95 369.05 C-170.65 369.91 -173.35 370.79 -176.05 371.66 C-177.91 372.26 -179.77 372.86 -181.63 373.45 C-193.46 377.31 -204.78 382.09 -215.75 388 C-216.56 388.44 -217.38 388.88 -218.22 389.33 C-219.8 390.18 -221.38 391.04 -222.95 391.9 C-224.59 392.78 -226.24 393.62 -227.91 394.45 C-236.35 398.91 -244.02 406.6 -250 414 C-250 414.66 -250 415.32 -250 416 C-245.65 414.62 -241.5 412.98 -237.33 411.13 C-236.7 410.85 -236.07 410.57 -235.42 410.29 C-234.06 409.69 -232.71 409.09 -231.36 408.5 C-227.75 406.9 -224.12 405.3 -220.5 403.71 C-219.78 403.39 -219.05 403.07 -218.3 402.74 C-211.96 399.97 -205.58 397.29 -199.19 394.62 C-185.18 388.76 -171.42 382.39 -157.63 376.05 C-149.93 372.5 -142.22 368.99 -134.5 365.5 C-133.86 365.21 -133.22 364.92 -132.56 364.62 C-122.11 359.9 -111.6 355.35 -101 351 C-104.42 349.86 -105.46 350.16 -108.86 351.08 Z M-273 353 C-271.78 360.34 -268.49 365.14 -264 371 C-264.91 371.19 -265.82 371.38 -266.76 371.57 C-270.95 373.42 -272.09 375.92 -273.9 379.91 C-274.23 380.59 -274.56 381.27 -274.89 381.97 C-275.58 383.4 -276.25 384.84 -276.92 386.29 C-277.94 388.5 -278.99 390.7 -280.05 392.9 C-280.71 394.3 -281.37 395.7 -282.03 397.09 C-282.18 397.42 -282.18 397.42 -282.98 399.1 C-283.72 400.71 -284.37 402.35 -285 404 C-284.67 404.66 -284.34 405.32 -284 406 C-275.86 398.33 -269.05 389.6 -262.5 380.56 C-262.07 379.97 -261.63 379.38 -261.19 378.77 C-257.38 373.45 -257.38 373.45 -257 370 C-257.92 368.09 -257.92 368.09 -259.39 366.14 C-259.91 365.44 -260.44 364.74 -260.98 364.01 C-261.55 363.28 -262.11 362.56 -262.69 361.81 C-263.23 361.08 -263.77 360.34 -264.33 359.58 C-268.84 353.65 -268.84 353.65 -273 353 Z M-728 368 C-728.33 368.66 -728.66 369.32 -729 370 C-728.31 369.88 -727.61 369.76 -726.89 369.63 C-723.27 369.04 -719.64 368.5 -716 368 C-715.32 367.9 -714.65 367.81 -713.95 367.71 C-700.81 365.93 -687.67 365.79 -674.44 365.75 C-673.56 365.74 -672.68 365.74 -671.77 365.73 C-669.24 365.72 -666.71 365.73 -664.18 365.73 C-663.8 365.73 -663.8 365.73 -661.86 365.72 C-658.09 365.76 -655.2 365.89 -652 368 C-654.62 371.88 -654.62 371.88 -658 373 C-660.21 373.1 -662.42 373.13 -664.62 373.12 C-665.79 373.13 -666.96 373.13 -668.16 373.13 C-670.93 373.04 -673.53 372.85 -676.26 372.51 C-697.03 370.06 -724.3 370.79 -742.69 382.06 C-745 384 -745 384 -746 387 C-741.71 387 -737.42 387 -733 387 C-734.55 387.72 -736.09 388.44 -737.69 389.19 C-743.99 392.35 -747.46 395.95 -751 402 C-742.31 400.04 -734.14 397.32 -725.81 394.19 C-704.83 386.49 -684.84 382.11 -662.56 381.56 C-622.48 380.42 -622.48 380.42 -611.65 370.14 C-609.9 367.88 -609.44 366.82 -609.44 364 C-609.62 363.01 -609.81 362.02 -610 361 C-634.95 343.99 -704.45 349.89 -728 368 Z M-332 358 C-331.64 358.35 -331.64 358.35 -329.81 360.12 C-327.83 362.09 -326.05 364.13 -324.31 366.31 C-323.55 367.2 -322.79 368.09 -322 369 C-321.34 369 -320.68 369 -320 369 C-320.22 365.16 -320.97 364.03 -323.75 361.25 C-326.75 359.17 -328.43 358.31 -332 358 Z M4 370 C2.85 373.38 2.6 375.1 4.06 378.38 C6 380 6 380 8.94 380.5 C12 380 12 380 14.38 378.38 C16.47 375.31 16.62 373.65 16 370 C14.19 368.12 14.19 368.12 12 367 C8.3 367 6.89 367.72 4 370 Z M-545 377 C-543.63 380.16 -543.01 380.99 -540 383 C-537.44 383.52 -537.44 383.52 -534.56 383.81 C-534.09 383.87 -534.09 383.87 -531.69 384.14 C-528.52 383.97 -527.31 383.11 -525 381 C-525.37 378.51 -525.59 377.33 -527.6 375.73 C-534.1 372.57 -539.94 370.52 -545 377 Z M-353 376 C-353.12 378.38 -353.12 378.38 -353 381 C-352.34 381.66 -351.68 382.32 -351 383 C-350.01 383 -349.02 383 -348 383 C-348.33 381.02 -348.66 379.04 -349 377 C-350.32 376.67 -351.64 376.34 -353 376 Z M-606 380 C-605.62 382.62 -605.62 382.62 -605 385 C-602.07 385.84 -600.29 386.07 -597.31 385.31 C-594.7 383.83 -594.02 382.78 -593 380 C-595 378 -595 378 -597.09 377.73 C-597.89 377.74 -598.68 377.74 -599.5 377.75 C-599.9 377.75 -599.9 377.75 -601.91 377.73 C-604 378 -604 378 -606 380 Z M-323 378 C-325.75 380.75 -325.75 380.75 -328 384 C-327.81 386.38 -327.81 386.38 -327 388 C-326.4 387.24 -325.8 386.47 -325.19 385.69 C-323 383 -323 383 -321.25 381.31 C-320 380 -320 380 -320 378 C-320.99 378 -321.98 378 -323 378 Z M-583 385 C-583.62 387.69 -583.62 387.69 -583 391 C-578.35 396.96 -572.33 399.8 -565 401 C-558.24 401.66 -552.98 401.31 -547 398 C-545 396 -545 396 -544.62 393.19 C-545.11 389.06 -545.94 387.84 -549 385 C-559.89 378.58 -572.99 374.99 -583 385 Z M-510 384 C-510.62 386.88 -510.62 386.88 -510 390 C-504.19 396.42 -495.02 399.64 -486.5 400.25 C-482.85 399.99 -481.59 399.49 -479 397 C-479.46 392.1 -480.46 389.45 -484 386 C-489.31 382.81 -494.2 380.85 -500.44 380.75 C-501.38 380.72 -502.33 380.7 -503.31 380.67 C-506.44 381.05 -507.77 381.8 -510 384 Z M-319 384 C-320.35 386.71 -320.07 389.01 -320 392 C-319.34 392 -318.68 392 -318 392 C-316 389 -316 389 -316.38 386.31 C-316.48 385.93 -316.48 385.93 -317 384 C-317.66 384 -318.32 384 -319 384 Z M-738 412 C-738.79 412.36 -739.58 412.71 -740.4 413.08 C-785.76 433.61 -785.76 433.61 -796 448 C-796 449.32 -796 450.64 -796 452 C-787.96 450.57 -780.9 447.63 -773.44 444.38 C-772.24 443.86 -771.04 443.34 -769.8 442.81 C-766.87 441.55 -763.93 440.28 -761 439 C-761.87 439.46 -762.75 439.92 -763.65 440.4 C-773.84 445.8 -783.93 451.37 -794 457 C-794 457.99 -794 458.98 -794 460 C-788.49 463.23 -784.73 463.76 -778.47 462.48 C-762.76 458.27 -748.11 449.81 -734 441.94 C-704.8 425.76 -673.58 417.1 -641.35 409.25 C-614.55 402.67 -614.55 402.67 -609 395 C-612 391.52 -615.48 390.56 -619.72 389.06 C-622 388 -622 388 -624 385 C-660.4 378.9 -705.53 397.22 -738 412 Z M-452 390 C-451.74 391.9 -451.74 391.9 -451 394 C-449.32 394.93 -449.32 394.93 -447.12 395.53 C-446.31 395.76 -445.5 395.99 -444.67 396.23 C-443.79 396.46 -442.91 396.7 -442 396.94 C-441.55 397.07 -441.55 397.07 -439.24 397.72 C-435.1 398.9 -430.94 400.02 -426.77 401.11 C-413.59 404.65 -401.38 410.31 -389 416 C-389 415.01 -389 414.02 -389 413 C-404.64 404.79 -420.6 398.19 -437.5 393 C-438.49 392.7 -439.47 392.39 -440.49 392.08 C-444.56 390.87 -447.71 390 -452 390 Z M-344 391 C-345.12 394.75 -345.12 394.75 -344 397 C-342.35 396.67 -340.7 396.34 -339 396 C-339.33 394.68 -339.66 393.36 -340 392 C-341.32 391.67 -342.64 391.34 -344 391 Z M-329 395 C-328.67 396.32 -328.34 397.64 -328 399 C-327.01 398.67 -326.02 398.34 -325 398 C-325.33 396.68 -325.66 395.36 -326 394 C-327 394 -327 394 -329 395 Z M-316 397 C-318 400 -318 400 -318 403 C-317.01 403 -316.02 403 -315 403 C-314.67 401.35 -314.34 399.7 -314 398 C-314.66 397.67 -315.32 397.34 -316 397 Z M-448 398 C-448.2 398.53 -448.4 399.05 -448.61 399.6 C-454.5 415 -460.65 429.29 -470.92 442.32 C-473.1 445.13 -475.04 448.04 -477 451 C-463.77 450.36 -450.66 448.94 -437.5 447.44 C-435.4 447.2 -433.31 446.96 -431.21 446.73 C-426.14 446.16 -421.07 445.58 -416 445 C-418.72 442.94 -421.47 441.09 -424.38 439.31 C-429.82 435.72 -433.92 431.24 -436 425 C-436.38 420.92 -436.23 418.49 -434.5 414.75 C-431.23 411.15 -428.62 410.39 -424 409 C-427.46 406.03 -430.65 404.08 -434.88 402.38 C-435.86 401.97 -436.85 401.57 -437.87 401.15 C-441.22 399.92 -444.56 398.94 -448 398 Z M-512 399 C-512.73 399.88 -513.45 400.77 -514.2 401.68 C-521.63 410.58 -529.48 418.42 -538.29 425.95 C-551.54 437.29 -551.54 437.29 -553.62 445.44 C-552.74 449.07 -550.79 449.95 -547.73 451.89 C-540.26 454.94 -532.42 455.34 -524.44 455.31 C-523.56 455.33 -522.68 455.34 -521.77 455.36 C-515.88 455.37 -510.29 454.76 -505 452 C-502.51 448.27 -502.7 445.32 -503 441 C-503.08 440.6 -503.08 440.6 -503.5 438.56 C-504.52 433.32 -504.36 428.15 -503 423 C-501.83 422.82 -500.66 422.64 -499.46 422.45 C-497.91 422.2 -496.36 421.94 -494.81 421.69 C-494.04 421.57 -493.27 421.45 -492.48 421.33 C-486.97 420.41 -483.05 419.05 -479 415 C-478.56 412.62 -478.56 412.62 -479 410 C-487.39 402.09 -501.01 401.01 -512 399 Z M-797.49 406.32 C-800.58 409.76 -802.75 413.14 -803.38 417.81 C-803 420 -803 420 -801 422 C-793.82 422.9 -787.59 420.41 -781.65 416.42 C-778.36 413.77 -775.74 411.36 -774.31 407.31 C-774 404 -774 404 -775 401.62 C-782.17 395.8 -791.67 400.87 -797.49 406.32 Z M-344 402 C-343.67 402.99 -343.34 403.98 -343 405 C-341.35 405 -339.7 405 -338 405 C-338 404.34 -338 403.68 -338 403 C-338.99 402.83 -338.99 402.83 -344 402 Z M-591.62 410.69 C-593.52 415.25 -593.77 419.13 -593 424 C-589.31 431.68 -582.04 436.62 -574.48 440.14 C-570.33 441.58 -568.24 441.32 -564 440 C-559.13 437.15 -556.03 433.55 -554.37 428.14 C-553.34 422.19 -554.46 416.72 -557.69 411.64 C-561.27 407.16 -565.29 403.48 -571.13 402.73 C-579.4 402.38 -585.8 404.72 -591.62 410.69 Z M-312 405 C-311.67 406.32 -311.34 407.64 -311 409 C-310.34 409.17 -310.34 409.17 -307 410 C-307.81 408.06 -307.81 408.06 -309 406 C-309.99 405.67 -310.98 405.34 -312 405 Z M-329 406 C-329.33 406.99 -329.66 407.98 -330 409 C-329.01 409.33 -328.02 409.66 -327 410 C-326.67 408.68 -326.34 407.36 -326 406 C-326.99 406 -327.98 406 -329 406 Z M-631.73 413.25 C-632.85 413.52 -633.97 413.8 -635.12 414.08 C-636.32 414.38 -637.52 414.69 -638.75 415 C-639.99 415.32 -641.24 415.63 -642.52 415.96 C-682.53 426.28 -743.8 445.88 -773 477 C-774.18 479.35 -774.17 480.88 -774.19 483.5 C-774.2 484.29 -774.22 485.09 -774.23 485.91 C-774 488 -774 488 -772 490 C-745.62 479.42 -745.62 479.42 -742.89 473.66 C-742.5 471.31 -742.5 471.31 -742.32 469.04 C-742 467 -742 467 -739.44 464.12 C-734.95 461 -729.97 458.69 -724.42 459.27 C-722.24 459.75 -720.13 460.3 -718 461 C-718.9 467.15 -719.86 471.03 -725 475 C-728.95 477.35 -732.4 478.72 -737 479 C-738.04 478.58 -739.07 478.16 -740.14 477.73 C-745.61 476.7 -748.28 478.67 -752.88 481.5 C-753.67 481.96 -754.46 482.43 -755.27 482.9 C-760.64 486.08 -765.94 489.36 -771 493 C-770.62 495.5 -770.26 496.75 -768.43 498.55 C-764.68 501.04 -762.8 502.07 -758.19 501.69 C-752.8 499.8 -747.91 496.86 -743 494 C-718.11 479.59 -693.01 466.23 -666.2 455.74 C-665.71 455.55 -665.71 455.55 -663.27 454.59 C-658.36 452.67 -653.45 450.77 -648.52 448.89 C-646.69 448.18 -644.86 447.47 -643.02 446.76 C-642.6 446.6 -642.6 446.6 -640.45 445.79 C-636.15 444.11 -633 442.68 -630 439 C-630.68 438.32 -631.36 437.64 -632.06 436.94 C-634 434 -634 434 -634.38 430.56 C-632.26 425.09 -628.03 423.59 -623 421 C-618.11 418.3 -618.11 418.3 -617.19 415.81 C-617.13 415.21 -617.06 414.62 -617 414 C-622.01 411.03 -626.27 411.91 -631.73 413.25 Z M-414 415 C-414.38 417.25 -414.38 417.25 -414 420 C-411.56 422.75 -411.56 422.75 -409 425 C-408.67 425.33 -408.34 425.66 -408 426 C-400.79 426.47 -400.79 426.47 -397.5 424.5 C-397 424 -396.51 423.51 -396 423 C-396.19 420.69 -396.19 420.69 -397 418 C-400.73 415.18 -409.94 410.94 -414 415 Z M-324 417 C-328.14 429.43 -319.03 448.29 -313.51 459.32 C-306.39 473.02 -297.82 487.51 -284.69 496.19 C-282 497 -282 497 -279.83 496.05 C-279.23 495.7 -278.62 495.36 -278 495 C-278.56 494.62 -279.11 494.24 -279.69 493.86 C-288.66 487.38 -294.2 479.21 -298.85 469.27 C-299.94 467.11 -301.16 465.3 -302.62 463.38 C-304.73 460.55 -305.98 457.77 -307.13 454.43 C-309.79 446.98 -312.6 439.6 -317.38 433.25 C-320.71 428.64 -320.62 424.51 -320 419 C-320.99 419 -321.98 419 -323 419 C-323.33 418.34 -323.66 417.68 -324 417 Z M-430 420 C-430.4 424.06 -429.84 427.73 -427.59 431.15 C-426.12 432.85 -424.63 434.45 -423 436 C-421.35 435.67 -419.7 435.34 -418 435 C-416.54 430.32 -417.26 426.47 -419 422 C-420.81 419.5 -420.81 419.5 -423 418 C-426.51 417.5 -427.45 417.45 -430 420 Z M-299 420 C-299.42 423.43 -299.19 424.73 -297.17 427.61 C-296.37 428.5 -295.57 429.39 -294.75 430.31 C-286 440.54 -286 440.54 -286 448 C-284.67 449.33 -283.33 450.67 -282 452 C-280.69 454.5 -279.53 456.91 -278.44 459.5 C-278.13 460.21 -277.83 460.92 -277.52 461.65 C-273.57 471.14 -269.67 481.86 -273 492.06 C-273.33 492.7 -273.66 493.34 -274 494 C-272.12 493.75 -272.12 493.75 -270 493 C-265.36 485.51 -268.38 475.9 -270.23 467.89 C-274.69 449.61 -282.09 433.83 -296 421 C-296.99 420.67 -297.98 420.34 -299 420 Z M-829 423 C-830.56 424.62 -830.56 424.62 -832 427 C-831.69 430.25 -831.69 430.25 -831 433 C-830.01 433 -829.02 433 -828 433 C-826.14 429.87 -825.8 427.63 -826 424 C-826.99 423.67 -827.98 423.34 -829 423 Z M-496 426 C-498.38 428.62 -498.38 428.62 -500 432 C-499.45 435.52 -498.66 437.32 -496.19 439.88 C-493.49 441.26 -491.99 441.54 -489 441 C-487.12 439.38 -487.12 439.38 -486 437 C-486 432.94 -486.75 431.31 -489.31 428.12 C-492 426 -492 426 -496 426 Z M-88.04 437.51 C-89.8 437.95 -91.57 438.38 -93.33 438.81 C-94.24 439.05 -95.15 439.29 -96.09 439.53 C-96.84 439.72 -97.59 439.91 -98.36 440.11 C-100 441 -100 441 -100.8 442.91 C-101.1 446.05 -99.91 448.16 -98.62 451 C-95.33 458.36 -94.76 464.19 -94.38 472.27 C-94.02 475.81 -93.27 478.69 -92 482 C-83.45 482.38 -75.39 481.09 -67.01 479.61 C-64.58 479.18 -62.15 478.76 -59.72 478.35 C-56.53 477.81 -53.35 477.26 -50.17 476.71 C-36.47 474.36 -22.75 472.61 -8.94 471.06 C2.15 469.82 13.21 468.52 24.25 466.94 C25.34 466.79 26.44 466.64 27.56 466.48 C33.96 465.54 39.5 464.37 44.94 460.69 C46.73 457.83 46.63 456.32 46 453 C38.74 440.53 19.67 432 6.62 427.62 C-24.4 419.99 -57.99 429.89 -88.04 437.51 Z M-409 429 C-413.02 433.38 -413.02 433.38 -412.94 436.19 C-412 438 -412 438 -409 440 C-405.19 441.03 -401.58 441.12 -397.65 441.11 C-396.39 441.11 -395.13 441.11 -393.83 441.11 C-392.46 441.11 -391.1 441.1 -389.73 441.1 C-388.33 441.1 -386.92 441.09 -385.51 441.09 C-381.83 441.09 -378.14 441.08 -374.45 441.07 C-370.68 441.06 -366.92 441.05 -363.15 441.05 C-355.77 441.04 -348.38 441.02 -341 441 C-344.9 438.4 -348.73 437.61 -353.25 436.5 C-354.14 436.28 -355.04 436.06 -355.96 435.83 C-382.66 429.42 -382.66 429.42 -394 434 C-396.31 436.56 -396.31 436.56 -398 439 C-398.33 439.16 -398.33 439.16 -400 440 C-400.27 439.09 -400.54 438.18 -400.81 437.25 C-401.92 434.23 -402.79 432.3 -405 430 C-407.19 429.25 -407.19 429.25 -409 429 Z M-730 501 C-730.87 501.67 -731.75 502.35 -732.65 503.04 C-734.9 504.92 -736.78 506.84 -738.69 509.06 C-739.27 509.73 -739.85 510.41 -740.45 511.1 C-742.41 513.5 -743.88 515.34 -744.44 518.44 C-744 521 -744 521 -741.81 523.25 C-738.87 525.08 -736.48 526 -733 526 C-732.3 526.8 -731.6 527.61 -730.88 528.44 C-727.3 531.62 -725.78 532.16 -721 532 C-713.64 529.06 -706.94 524.6 -700.31 520.31 C-699.35 519.69 -698.38 519.08 -697.39 518.44 C-690.82 514.21 -684.31 509.91 -677.82 505.56 C-665.59 497.37 -653.35 489.45 -640.41 482.41 C-635.83 479.92 -631.31 477.32 -626.81 474.69 C-626.47 474.49 -626.47 474.49 -624.74 473.49 C-620.31 470.88 -616.15 468.04 -612 465 C-613.08 462.57 -614.16 460.82 -615.94 458.81 C-618.63 455.14 -619.75 451.35 -621 447 C-657.24 447 -702.77 479.51 -730 501 Z M-831 449 C-833 451 -833 451 -833.38 454.31 C-832.95 458.51 -831.89 460.02 -829 463 C-826.42 462.66 -825.31 462.4 -823.69 460.31 C-822.76 457.18 -823.13 455.13 -824 452 C-825.31 450.12 -825.31 450.12 -827 449 C-828.32 449 -829.64 449 -831 449 Z M-141.75 453.56 C-144.28 454.32 -146.82 455.06 -149.35 455.8 C-149.99 455.99 -150.64 456.18 -151.3 456.37 C-173.14 462.71 -195.51 465.96 -218 469 C-217.67 469.66 -217.34 470.32 -217 471 C-213.1 471.78 -209.09 471.91 -205.12 472.19 C-204.51 472.23 -204.51 472.23 -201.38 472.45 C-133.69 476.46 -133.69 476.46 -112 462 C-113.13 457.2 -115.92 455.13 -119.64 452.23 C-127.35 448.21 -133.92 451.11 -141.75 453.56 Z M-447.5 452.88 C-448.25 452.91 -449 452.95 -449.77 452.99 C-459.59 453.53 -469.27 454.57 -479 456 C-479 456.33 -479 456.66 -479 457 C-446.99 460.22 -414.87 459.13 -382.75 458.56 C-381.61 458.54 -380.47 458.52 -379.29 458.5 C-355.83 458.09 -355.83 458.09 -345 457 C-348.14 454.91 -349.84 454.51 -353.5 453.94 C-354.46 453.78 -355.42 453.63 -356.41 453.46 C-365.2 452.33 -373.9 451.84 -382.77 451.83 C-383.87 451.83 -384.98 451.82 -386.11 451.82 C-389.68 451.81 -393.25 451.81 -396.81 451.81 C-398.03 451.81 -399.25 451.81 -400.5 451.81 C-416.19 451.82 -431.84 452.03 -447.5 452.88 Z M-574.39 457.81 C-575.59 458.22 -576.78 458.63 -578.01 459.06 C-579.28 459.52 -580.55 459.98 -581.81 460.44 C-583.12 460.9 -584.43 461.37 -585.74 461.83 C-606.86 469.4 -626.62 479.06 -645 492 C-645.54 492.38 -646.08 492.75 -646.64 493.14 C-697.75 528.71 -697.75 528.71 -703 547 C-703.28 552.18 -701.72 554.65 -698.44 558.44 C-697.31 559.64 -696.16 560.83 -695 562 C-691.89 560.53 -689.1 558.8 -686.25 556.88 C-684.85 555.93 -683.44 554.98 -682 554 C-685.3 556.97 -688.6 559.94 -692 563 C-689.91 567.17 -689.03 567.97 -685.19 570.25 C-684.34 570.77 -683.48 571.29 -682.61 571.83 C-679.64 573.16 -678.2 573.55 -675 573 C-672.68 571.62 -670.64 570.25 -668.5 568.62 C-667.88 568.17 -667.27 567.72 -666.64 567.25 C-662.12 563.9 -657.67 560.47 -653.24 557.03 C-645.28 550.86 -637.13 544.94 -629 539 C-628.63 538.73 -628.63 538.73 -626.76 537.36 C-617.75 530.78 -608.65 524.32 -599.5 517.94 C-598.54 517.26 -597.57 516.59 -596.58 515.9 C-591.95 512.68 -587.31 509.53 -582.57 506.49 C-582.15 506.22 -582.15 506.22 -580.03 504.86 C-578.47 503.85 -576.9 502.87 -575.32 501.89 C-570.25 498.64 -570.25 498.64 -568.96 495.36 C-569 493 -569 493 -570 490 C-570.81 482.65 -569.43 477.45 -566 471 C-565.08 469.23 -564.16 467.46 -563.25 465.69 C-562.82 464.89 -562.39 464.09 -561.95 463.26 C-561 461 -561 461 -561 457 C-566.13 455.99 -569.47 456.08 -574.39 457.81 Z M-558.5 471.5 C-560.29 474.49 -560.93 476.51 -561 480 C-559.34 483.84 -557.82 485.44 -554 487 C-537.07 489.68 -517.12 478.28 -503.88 468.75 C-503.57 468.46 -503.57 468.46 -502 467 C-502 466.34 -502 465.68 -502 465 C-521.18 459.84 -543.19 456.19 -558.5 471.5 Z M-492.31 472 C-492.87 472.25 -492.87 472.25 -495.66 473.53 C-514.38 482.19 -529.56 494.57 -545 508 C-552.42 514.45 -559.9 520.77 -567.68 526.79 C-572.08 530.22 -576.31 533.82 -580.5 537.5 C-585.25 541.67 -590.06 545.7 -595.06 549.56 C-601.74 554.73 -608.15 560.17 -614.52 565.72 C-615.76 566.79 -617.02 567.86 -618.27 568.93 C-634.28 582.59 -634.28 582.59 -638 589 C-638 591.02 -638 591.02 -637 593 C-634.71 594.92 -634.71 594.92 -631.94 596.75 C-631.48 597.06 -631.48 597.06 -629.15 598.61 C-628.44 599.07 -627.73 599.53 -627 600 C-621.46 597.05 -616.5 593.54 -611.45 589.8 C-609.67 588.49 -607.84 587.23 -606 586 C-606.14 585.48 -606.29 584.97 -606.44 584.44 C-606.62 583.63 -606.81 582.83 -607 582 C-607.27 580.89 -607.54 579.77 -607.81 578.62 C-608.05 573.99 -607.05 572.44 -604 569 C-599.63 566.08 -596.21 565.43 -591 566 C-589.3 566.95 -587.63 567.95 -586 569 C-585.36 568.39 -584.71 567.79 -584.05 567.16 C-577.6 561.18 -570.89 555.72 -563.87 550.42 C-561.1 548.32 -558.37 546.17 -555.64 544.02 C-541.52 532.96 -527.21 522.19 -512.17 512.41 C-509.65 510.77 -507.14 509.12 -504.62 507.47 C-494.51 500.84 -484.36 494.28 -474.11 487.86 C-470.03 485.3 -465.99 482.69 -462 480 C-465.64 478.79 -466.42 479.3 -469.88 480.74 C-470.36 480.94 -470.36 480.94 -472.83 481.96 C-473.88 482.41 -474.92 482.85 -476 483.31 C-476.54 483.54 -476.54 483.54 -479.26 484.7 C-495.47 491.67 -510.41 500.12 -525 510 C-525.76 510.51 -526.53 511.03 -527.31 511.56 C-535.86 517.34 -544.33 523.22 -552.75 529.19 C-558.16 533.03 -563.61 536.81 -569.12 540.5 C-569.72 540.9 -570.31 541.29 -570.92 541.7 C-574.85 544.32 -578.88 546.69 -583 549 C-572.95 541.18 -562.8 533.64 -552.25 526.52 C-549.77 524.84 -547.31 523.14 -544.84 521.44 C-519.49 503.93 -493.89 488.89 -465.31 477.33 C-464.65 477.06 -464 476.79 -463.33 476.52 C-461.54 475.79 -459.76 475.08 -457.97 474.36 C-455.31 473.14 -453.24 471.86 -451 470 C-457.32 468.64 -463.56 467.52 -470 467 C-470.72 466.93 -471.45 466.86 -472.19 466.79 C-479.8 466.38 -485.5 468.82 -492.31 472 Z M-115.23 468.99 C-128.43 472.17 -141.52 474.45 -155 476 C-156.08 476.13 -157.16 476.27 -158.27 476.4 C-175.98 478.25 -194.15 476.9 -211.88 476 C-214.78 475.86 -217.69 475.71 -220.6 475.57 C-222.38 475.49 -224.17 475.4 -225.95 475.3 C-230.97 475.06 -235.97 474.96 -241 475 C-237.39 478.31 -233.26 479.26 -228.62 480.38 C-227.77 480.58 -226.91 480.79 -226.02 481.01 C-190.11 489.44 -137.23 498.95 -101 486 C-100.67 485.34 -100.34 484.68 -100 484 C-101.11 481.32 -101.11 481.32 -102.75 478.12 C-103.02 477.6 -103.02 477.6 -104.36 474.95 C-105.76 472.42 -107.1 470.17 -109 468 C-111.24 468 -113.05 468.45 -115.23 468.99 Z M-447 475 C-447.64 475.32 -448.29 475.64 -448.95 475.98 C-461.5 482.35 -472.98 490.25 -484.52 498.28 C-487.82 500.57 -491.15 502.83 -494.5 505.06 C-495.07 505.45 -495.65 505.83 -496.24 506.22 C-501.75 509.88 -507.35 513.4 -512.94 516.94 C-535.48 531.22 -556.85 547.07 -577.93 563.42 C-579.59 564.69 -581.29 565.89 -583.01 567.08 C-585.62 569.6 -585.87 571.52 -586.44 575.06 C-587.69 580.75 -587.69 580.75 -590.56 583.12 C-594 584 -594 584 -596.26 584.25 C-604.68 585.32 -608.62 589.69 -614 596 C-614.66 596.76 -615.32 597.52 -616 598.3 C-620.07 603.3 -620.07 603.3 -619.81 606.06 C-618.47 609.27 -616 611.39 -613 613 C-609.63 613.95 -609.63 613.95 -606 614 C-603.16 611.97 -603.16 611.97 -600.5 609.06 C-600.26 608.81 -600.26 608.81 -599.06 607.53 C-596.45 604.71 -593.94 601.79 -591.44 598.88 C-584.52 590.83 -576.1 584.42 -567.76 577.95 C-563.85 574.9 -560.02 571.77 -556.19 568.62 C-550.05 563.61 -543.82 558.74 -537.5 553.95 C-533.01 550.54 -528.55 547.09 -524.11 543.61 C-517.04 538.07 -509.9 532.68 -502.55 527.51 C-500.11 525.79 -497.69 524.05 -495.29 522.27 C-470.21 503.77 -443.76 485.24 -416 471 C-416 470.67 -416 470.34 -416 470 C-427.45 469.42 -436.56 469.68 -447 475 Z M-370 471 C-381.08 471.76 -389.55 475.61 -399 481 C-399.75 481.43 -400.51 481.85 -401.28 482.29 C-417.63 491.68 -433.2 502.36 -448.83 512.87 C-457.37 518.62 -465.93 524.32 -474.72 529.7 C-485.45 536.29 -495.39 543.88 -505 552 C-504.34 552.33 -503.68 552.66 -503 553 C-500.78 551.96 -500.78 551.96 -498 550.31 C-496.96 549.7 -495.92 549.09 -494.85 548.47 C-493.72 547.8 -492.6 547.13 -491.44 546.44 C-489.06 545.04 -486.67 543.64 -484.29 542.25 C-483.98 542.07 -483.98 542.07 -482.44 541.17 C-476.47 537.67 -470.43 534.3 -464.38 530.94 C-453.05 524.63 -441.85 518.14 -430.67 511.57 C-428.25 510.15 -425.82 508.73 -423.39 507.32 C-404.84 496.54 -386.93 484.76 -369 473 C-369.33 472.34 -369.66 471.68 -370 471 Z M-357.94 476.69 C-358.28 476.84 -358.28 476.84 -360.03 477.62 C-379.8 486.73 -397.99 499.59 -416.19 511.42 C-428.28 519.28 -440.93 526.1 -453.56 533.02 C-471.41 542.79 -488.87 553.02 -506 564 C-506.73 564.47 -507.45 564.93 -508.2 565.41 C-522.28 574.47 -535.75 584.47 -548.81 594.94 C-549.45 595.44 -550.09 595.95 -550.75 596.47 C-561.21 604.99 -561.21 604.99 -562.69 610.62 C-561.69 614.09 -559.72 615.82 -557 618 C-556.21 618.64 -555.43 619.28 -554.62 619.94 C-549.51 623.83 -549.51 623.83 -547 625 C-541.96 624.1 -538.22 620.05 -534.5 616.75 C-533.85 616.19 -533.2 615.63 -532.53 615.05 C-528.61 611.62 -525.22 608.09 -522 604 C-522.35 603.3 -522.7 602.6 -523.06 601.88 C-524.48 597.52 -523.65 594.51 -521.88 590.38 C-519.3 587.12 -516.98 585.13 -513 584 C-510.56 584.02 -508.12 584.11 -505.69 584.25 C-499.7 584.46 -496.73 583.8 -492.06 580 C-490.68 578.7 -489.31 577.38 -488 576 C-488.35 576.36 -488.35 576.36 -490.12 578.19 C-491.59 579.69 -492.97 580.98 -494.7 582.16 C-496.38 583.31 -496.38 583.31 -499 586 C-498.69 589.94 -498.69 589.94 -498.27 592.02 C-497.8 595.49 -498.98 597.24 -501 600 C-505.07 603.61 -508.37 605.16 -513.81 605 C-517.69 605.2 -518.89 605.9 -521.84 608.55 C-524.8 611.86 -527.43 615.39 -530 619 C-530.75 620.03 -531.51 621.07 -532.29 622.13 C-537.04 629.07 -537.04 629.07 -536.89 632.62 C-535.03 637.61 -530.05 639.92 -525.53 642.3 C-521.07 644.3 -516.94 645.85 -512.05 644.85 C-504.46 641.69 -498.47 634.65 -492.52 629.13 C-487.53 624.52 -482.3 620.25 -477 616 C-475.75 614.98 -474.5 613.96 -473.25 612.94 C-466.2 607.18 -459.11 601.49 -451.94 595.88 C-448.42 593.13 -444.95 590.34 -441.5 587.5 C-431.4 579.19 -421.01 571.23 -410.68 563.2 C-404.89 558.7 -399.12 554.18 -393.36 549.64 C-391.09 547.85 -388.8 546.07 -386.52 544.3 C-378.12 537.78 -370 531 -362 524 C-361.13 523.24 -360.25 522.48 -359.36 521.7 C-336.68 501.66 -336.68 501.66 -333 494 C-332.86 491.28 -332.86 491.28 -333 489 C-337.59 489.53 -340.16 491.31 -343.81 494.06 C-350.29 498.85 -356.96 503.32 -363.69 507.75 C-378.96 517.87 -393.63 528.45 -407.38 540.58 C-410.05 542.92 -412.78 545.21 -415.5 547.5 C-420.02 551.31 -424.51 555.15 -429 559 C-445.88 573.48 -445.88 573.48 -454.38 580.38 C-463.22 587.58 -471.81 595.08 -480.25 602.75 C-487.48 609.29 -494.97 615.47 -503 621 C-497.41 613.98 -491.6 607.28 -485.48 600.73 C-483.2 598.23 -481.1 595.65 -479 593 C-476.66 590.54 -474.43 588.31 -471.69 586.31 C-471.41 586.1 -471.41 586.1 -470 585 C-470 584.34 -470 583.68 -470 583 C-469.44 582.77 -468.88 582.53 -468.3 582.29 C-465.43 580.68 -463.53 578.68 -461.25 576.31 C-456.99 571.98 -452.63 567.93 -448 564 C-446.4 562.63 -444.81 561.27 -443.21 559.9 C-442.02 558.87 -440.82 557.85 -439.63 556.83 C-435.85 553.59 -432.08 550.34 -428.33 547.08 C-425.82 544.9 -423.31 542.73 -420.79 540.55 C-419.64 539.55 -418.48 538.55 -417.33 537.55 C-408.54 529.92 -399.38 522.9 -390 516 C-388.39 514.82 -386.79 513.63 -385.18 512.45 C-382.73 510.64 -380.28 508.83 -377.83 507.03 C-371.52 502.39 -365.25 497.71 -359 493 C-362.37 493 -363.21 493.54 -365.97 495.32 C-366.37 495.57 -366.37 495.57 -368.41 496.86 C-369.28 497.42 -370.16 497.98 -371.06 498.56 C-379.19 503.69 -387.41 508.61 -395.75 513.38 C-422.46 528.7 -447.83 544.71 -472.15 563.62 C-474 565 -474 565 -476 566 C-468.49 558.91 -460.29 552.78 -452.06 546.57 C-450.24 545.18 -448.42 543.78 -446.61 542.36 C-420.24 521.79 -391.57 503.77 -363.05 486.36 C-362.56 486.06 -362.56 486.06 -360.1 484.55 C-358.25 483.42 -356.39 482.29 -354.52 481.17 C-353.69 480.67 -352.87 480.16 -352.02 479.64 C-351.29 479.2 -350.56 478.76 -349.81 478.31 C-348 477 -348 477 -346 474 C-350.49 473.63 -353.91 474.89 -357.94 476.69 Z M-23.06 478.19 C-25.58 478.51 -28.09 478.83 -30.61 479.15 C-76.34 485.03 -76.34 485.03 -89 489 C-86.31 497.98 -75.22 504.16 -67.55 508.84 C-61.69 511.5 -55.65 512.27 -49.29 512.68 C-47.8 512.78 -46.31 512.88 -44.82 512.99 C-44.04 513.04 -43.27 513.09 -42.47 513.15 C-19.18 514.75 4.05 517.31 26.62 523.46 C32.99 525.14 39.44 526.21 46 525 C48.34 523.47 48.34 523.47 50 522 C48.93 519.08 48.22 517.22 46 515 C46 513 46 511 46 509 C45.34 508.01 44.68 507.02 44 506 C44.19 502.94 44.19 502.94 45 500 C48.84 497.44 50.66 497.96 55.19 498.38 C55.82 498.43 55.82 498.43 59.04 498.71 C59.53 498.76 59.53 498.76 62 499 C61.33 493.54 59.07 491.49 54.96 488.05 C31.18 471.57 4.04 474.67 -23.06 478.19 Z M-820 477 C-822.28 480.42 -822.17 482.02 -821.54 486 C-820.71 489.09 -819.34 490.85 -817 493 C-814.25 493.81 -814.25 493.81 -812 494 C-809.53 490.3 -809.33 487.29 -810 483 C-811.62 480.06 -811.62 480.06 -814 478 C-817.25 477.19 -817.25 477.19 -820 477 Z M-246 480 C-238.05 488.03 -229.71 495.55 -220.9 502.62 C-218.21 504.83 -215.58 507.1 -212.96 509.39 C-195.83 524.33 -176.95 535.69 -156.23 544.98 C-154.69 545.69 -153.16 546.42 -151.65 547.18 C-151.26 547.37 -151.26 547.37 -149.31 548.32 C-148.97 548.49 -148.97 548.49 -147.24 549.37 C-142.63 550.67 -137.92 548.76 -133.43 547.53 C-127.01 545.89 -120.65 545.18 -114.06 544.56 C-98.32 542.89 -85.11 540.49 -74.45 527.96 C-71.52 523.98 -70.3 521 -71 516 C-74.28 511.51 -77.55 508.68 -82.25 505.62 C-87.25 502.33 -91.6 498.82 -95.8 494.53 C-102.35 489.97 -111.31 492.56 -118.69 493.44 C-159.07 497.89 -200.75 493.78 -239.42 481.1 C-243 480 -243 480 -246 480 Z M-246 488 C-233.52 515.6 -208.41 537.77 -187.29 558.84 C-184.6 561.52 -181.92 564.21 -179.24 566.9 C-177.51 568.63 -175.77 570.36 -174.04 572.09 C-173.64 572.49 -173.64 572.49 -171.65 574.49 C-167.44 578.68 -163.16 582.7 -158.65 586.54 C-156.6 588.35 -154.85 590.32 -153.12 592.44 C-151.45 594.5 -151.45 594.5 -150 596 C-149.34 596 -148.68 596 -148 596 C-147.88 596.28 -147.88 596.28 -147.27 597.71 C-145.74 600.47 -143.87 602.41 -141.69 604.69 C-116.75 631.41 -97.05 664.57 -80.74 697.07 C-74.95 708.42 -74.95 708.42 -69.68 711.24 C-60.93 713.58 -52.17 714.68 -44 710 C-40.56 706.92 -39.18 703.92 -38.85 699.27 C-40.55 673.32 -68.36 644.15 -84 625 C-84.34 624.58 -84.34 624.58 -86.07 622.44 C-91.25 616.06 -96.56 609.79 -101.94 603.57 C-103.86 601.34 -105.76 599.09 -107.62 596.8 C-114.35 588.65 -121.67 581.11 -129.12 573.62 C-129.65 573.1 -130.17 572.57 -130.7 572.03 C-132.2 570.53 -133.69 569.03 -135.2 567.54 C-135.63 567.1 -135.63 567.1 -137.85 564.89 C-140 563 -140 563 -142 563 C-144.52 566.79 -144.77 570.63 -144 575 C-140.29 586 -132.42 593.78 -124.28 601.67 C-120.06 605.79 -116.36 610.11 -112.81 614.81 C-112.26 615.54 -111.71 616.27 -111.14 617.02 C-88.52 647.18 -88.52 647.18 -89 657 C-92.65 655.55 -93.97 653.91 -95.88 650.52 C-96.14 650.06 -96.14 650.06 -97.47 647.76 C-98.01 646.79 -98.56 645.82 -99.12 644.81 C-100.29 642.79 -101.46 640.78 -102.63 638.76 C-102.92 638.27 -102.92 638.27 -104.37 635.77 C-113.6 620.12 -124.56 605.23 -137 592 C-151.63 576.33 -151.63 576.33 -151.37 565.52 C-151 563 -151 563 -149.91 560.92 C-149 559 -149 559 -148.93 557.02 C-150.68 553.71 -153.87 552.43 -157.06 550.75 C-157.78 550.36 -158.5 549.97 -159.23 549.57 C-164.12 546.93 -169.08 544.45 -174.06 542 C-191.81 533.25 -206.73 522.25 -221.11 508.71 C-223.98 506.02 -226.91 503.43 -229.89 500.87 C-231.65 499.31 -233.37 497.73 -235.08 496.13 C-235.63 495.63 -236.17 495.12 -236.73 494.6 C-237.81 493.59 -238.89 492.57 -239.97 491.55 C-243.78 488 -243.78 488 -246 488 Z M-265 495 C-265.33 497.31 -265.66 499.62 -266 502 C-264.02 502.66 -262.04 503.32 -260 504 C-261.09 500.22 -261.91 497.53 -265 495 Z M78 500 C75.37 502.63 75.67 503.9 75.62 507.56 C75.76 515.62 78.34 522.16 84 528 C85.94 529.38 85.94 529.38 88 530 C89.67 529.71 91.34 529.38 93 529 C93.9 519.6 92.26 512.89 87 505 C85.06 502.78 83.54 501.58 81 500 C80.01 500 79.02 500 78 500 Z M-800 502 C-803.98 506.22 -803.98 506.22 -804.06 509.56 C-802.64 512.82 -800.98 514.1 -798 516 C-794.9 517.14 -793.7 517.32 -790.69 515.94 C-789 514 -789 514 -788.44 511.12 C-789.19 506.94 -790.64 505.56 -794 503 C-797.31 502.19 -797.31 502.19 -800 502 Z M-260 504 C-259 506 -259 506 -259 506 Z M-280 506 C-279.48 511.01 -278.4 514.71 -276.12 519.19 C-272.54 526.48 -269.61 533.98 -266.69 541.56 C-261.91 553.93 -256.66 566.01 -251 578 C-242.21 576.91 -234.3 572.14 -228 566 C-226.71 564.17 -226.71 564.17 -226 562 C-228.44 553.77 -234.41 546.11 -239.02 538.95 C-245.86 528.26 -251.9 517.11 -258 506 C-258.33 506 -258.66 506 -259 506 C-260.15 511.14 -260.15 511.14 -260 514 C-259.59 514.48 -259.59 514.48 -257.5 516.94 C-255 520 -255 520 -254.89 522.37 C-255.16 524.62 -255.5 526.79 -256 529 C-255.22 529.29 -254.43 529.58 -253.62 529.88 C-250.05 532.77 -250.05 535.3 -249.46 539.72 C-249 542 -249 542 -247 544 C-246.41 544.16 -246.41 544.16 -243.44 545 C-242.3 545.33 -241.17 545.66 -240 546 C-238.44 549.12 -238.44 552.6 -239 556 C-240.57 558.15 -241.59 558.88 -244.16 559.62 C-244.93 559.7 -245.7 559.79 -246.5 559.88 C-246.89 559.93 -246.89 559.93 -248.84 560.18 C-251 560 -251 560 -252.76 558.82 C-254.37 556.46 -254.3 554.9 -254.31 552.06 C-254.49 549.34 -254.49 549.34 -255 547 C-255.99 546.36 -256.98 545.72 -258 545.06 C-258.5 544.72 -258.5 544.72 -261 543 C-261.5 540.18 -261.57 537.46 -261.66 534.61 C-262.15 530.87 -264.33 529.53 -267 527 C-267.72 524.01 -267.93 521.07 -268 518 C-269.09 517.69 -270.19 517.38 -271.31 517.06 C-273.94 515.98 -274.82 515.36 -276.13 512.8 C-276.86 510.54 -277.49 508.31 -278 506 C-278.66 506 -279.32 506 -280 506 Z M-310 513 C-316.02 519.56 -321.28 526.69 -326.44 533.94 C-331.52 541.07 -336.86 547.83 -342.63 554.42 C-344.04 556.05 -345.44 557.7 -346.82 559.35 C-357.15 571.6 -368.14 583.21 -379.44 594.56 C-380.08 595.2 -380.71 595.85 -381.37 596.51 C-385.75 600.87 -390.31 604.97 -395 609 C-401.65 614.76 -401.65 614.76 -402.81 618.88 C-401.59 623.58 -398.89 627.14 -396 631 C-387.19 629.67 -380.38 619.28 -375.21 612.75 C-373.06 610.08 -370.82 607.53 -368.5 605 C-363.8 599.82 -359.38 594.45 -355 589 C-354.07 587.87 -353.15 586.73 -352.22 585.6 C-339.43 569.89 -328.02 553.62 -318 536 C-317.54 535.19 -317.08 534.39 -316.61 533.56 C-315.3 531.26 -314.02 528.95 -312.75 526.62 C-312.37 525.94 -311.98 525.26 -311.59 524.55 C-309.44 520.53 -308.58 517.56 -309 513 C-309.33 513 -309.66 513 -310 513 Z M-585 515 C-585.47 515.35 -585.47 515.35 -587.83 517.13 C-594.53 522.17 -601.24 527.19 -608.01 532.14 C-617.45 539.06 -626.73 546.15 -635.93 553.38 C-637.88 554.9 -639.83 556.42 -641.78 557.94 C-647.65 562.5 -653.44 567.14 -659.12 571.94 C-659.39 572.16 -659.39 572.16 -660.74 573.3 C-663.62 575.75 -666.37 578.28 -669 581 C-668.67 581.99 -668.34 582.98 -668 584 C-663.36 582.69 -660.12 580.88 -656.31 577.94 C-656.05 577.74 -656.05 577.74 -654.74 576.73 C-646.34 570.22 -638.24 563.38 -630.2 556.45 C-625.76 552.63 -621.26 548.9 -616.71 545.21 C-612.75 541.98 -608.84 538.69 -604.92 535.41 C-602.23 533.19 -599.5 531.03 -596.75 528.88 C-592.16 525.23 -588.04 521.24 -584 517 C-584.16 516.67 -584.16 516.67 -585 515 Z M-302 515 C-302.29 515.58 -302.58 516.16 -302.88 516.76 C-321.8 554.43 -346.91 587.52 -374.31 619.38 C-376.21 621.58 -378.11 623.79 -380 626 C-380.45 626.53 -380.91 627.06 -381.37 627.6 C-382.65 629.1 -383.92 630.61 -385.19 632.12 C-385.9 632.97 -386.62 633.82 -387.36 634.7 C-390.68 639.35 -389.84 642.47 -389 648 C-388.91 649.61 -388.84 651.23 -388.79 652.85 C-388.76 653.7 -388.73 654.55 -388.7 655.43 C-388.65 657.19 -388.61 658.95 -388.57 660.71 C-388.33 667.39 -387.12 671.73 -382.44 676.75 C-377.77 680.3 -372.29 681.41 -366.52 680.69 C-354.14 677.52 -344.93 668.63 -336 660 C-335.6 659.63 -335.6 659.63 -333.59 657.75 C-325.02 649.54 -317.97 640.52 -312.62 629.94 C-312.32 629.33 -312.01 628.71 -311.69 628.08 C-307.28 618.92 -304.47 609.28 -302.94 599.25 C-302.78 598.19 -302.61 597.14 -302.45 596.05 C-300.76 583.92 -300.01 571.71 -299.25 559.5 C-299.22 558.99 -299.22 558.99 -299.05 556.39 C-298.42 546.17 -297.89 535.96 -297.8 525.72 C-297.78 524.98 -297.77 524.23 -297.76 523.47 C-297.76 519.75 -297.88 518.18 -300 515 C-300.66 515 -301.32 515 -302 515 Z M-63.9 518.26 C-65.83 521.32 -67 524.55 -68.25 527.94 C-68.53 528.65 -68.81 529.37 -69.1 530.11 C-71.52 536.56 -71.52 536.56 -70 540 C-64 544.22 -56.42 546.43 -49.56 548.88 C-20.33 559.58 9.96 571.78 36.84 587.5 C39.78 589.16 41.53 590.04 44.95 589.73 C45.29 589.61 45.29 589.61 47 589 C46.92 588.11 46.83 587.22 46.75 586.3 C46.7 585.71 46.7 585.71 46.44 582.75 C46.39 582.17 46.39 582.17 46.12 579.23 C46 576 46 576 46.6 573.76 C46.73 573.18 46.86 572.6 47 572 C46.67 571.53 46.67 571.53 45 569.12 C43 566 43 566 43.01 562.97 C44 560 44 560 46.62 558.43 C47.69 558.06 48.77 557.69 49.88 557.31 C56.96 554.83 56.96 554.83 59 552 C59.13 548.58 58.99 546.15 56.69 543.47 C52.05 539.46 47.4 537.09 41.69 534.94 C40.81 534.6 39.93 534.26 39.03 533.91 C30.5 530.69 21.88 528.08 13 526 C12.26 525.83 11.52 525.65 10.75 525.47 C-1.43 522.69 -13.78 521.2 -26.19 519.81 C-26.56 519.77 -26.56 519.77 -28.46 519.56 C-33.63 518.98 -38.81 518.46 -44 518 C-44.82 517.93 -45.64 517.85 -46.48 517.78 C-48.96 517.56 -51.44 517.38 -53.93 517.2 C-54.69 517.13 -55.45 517.07 -56.24 517 C-61.49 516.66 -61.49 516.66 -63.9 518.26 Z M-488.86 525.68 C-489.64 526.25 -490.42 526.83 -491.22 527.42 C-492.05 528.04 -492.89 528.67 -493.75 529.31 C-494.18 529.63 -494.18 529.63 -496.35 531.25 C-511.43 542.5 -525.85 554.35 -539.79 567 C-541.77 568.8 -543.79 570.56 -545.81 572.31 C-555.08 580.43 -564.02 588.88 -572.81 597.52 C-574.23 598.92 -575.67 600.31 -577.1 601.7 C-577.98 602.57 -578.86 603.44 -579.77 604.34 C-580.16 604.73 -580.16 604.73 -582.17 606.7 C-584.16 609.2 -584.66 610.85 -585 614 C-582 612.63 -579.67 611.05 -577.19 608.88 C-576.56 608.34 -575.94 607.8 -575.29 607.24 C-572.67 604.68 -570.3 601.95 -567.9 599.17 C-559.93 590.06 -551.62 581.09 -542.47 573.16 C-540.61 571.53 -538.79 569.88 -537 568.18 C-529.34 560.96 -521.37 554.37 -513 548 C-505.68 542.41 -498.42 536.78 -491.25 531 C-490.55 530.44 -489.84 529.87 -489.12 529.29 C-488.79 529.03 -488.79 529.03 -487.14 527.69 C-486.56 527.22 -485.98 526.75 -485.38 526.26 C-484 525 -484 525 -483 523 C-485.72 523 -486.68 524.06 -488.86 525.68 Z M-327 524 C-327.61 524.5 -328.22 525 -328.84 525.51 C-334.55 530.19 -340.27 534.85 -346 539.5 C-350.51 543.16 -355.01 546.82 -359.5 550.5 C-360.36 551.2 -361.22 551.91 -362.11 552.63 C-364.32 554.44 -366.53 556.27 -368.74 558.09 C-375.7 563.82 -382.73 569.35 -390.12 574.53 C-397.78 579.92 -404.94 585.86 -412 592 C-410.34 598.7 -408.34 603.61 -404 609 C-396.19 603.85 -396.19 603.85 -394 602 C-394 601.34 -394 600.68 -394 600 C-393.73 599.89 -393.73 599.89 -392.37 599.35 C-389.15 597.51 -386.73 595.01 -384.14 592.41 C-383.59 591.86 -383.04 591.31 -382.48 590.75 C-381.32 589.59 -380.17 588.44 -379.02 587.28 C-377.25 585.5 -375.47 583.73 -373.69 581.96 C-372.57 580.84 -371.45 579.72 -370.33 578.59 C-369.79 578.06 -369.26 577.53 -368.71 576.99 C-365 573.23 -365 573.23 -365 571 C-364.34 571 -363.68 571 -363 571 C-361.7 569.74 -361.7 569.74 -360.12 567.88 C-359.5 567.14 -358.88 566.41 -358.24 565.66 C-357.87 565.22 -357.87 565.22 -356 563 C-354.61 561.38 -353.22 559.76 -351.83 558.14 C-350.28 556.34 -348.74 554.54 -347.2 552.73 C-345.07 550.24 -342.93 547.77 -340.77 545.3 C-335.39 539.13 -330.25 533.04 -326 526 C-326.16 525.67 -326.16 525.67 -327 524 Z M-776 527 C-776.66 528.65 -777.32 530.3 -778 532 C-772.86 537.57 -772.86 537.57 -769 538 C-767.38 536.38 -767.38 536.38 -766 534 C-766.69 530.81 -766.69 530.81 -768 528 C-770.71 526.65 -773.01 526.93 -776 527 Z M-293 528 C-294.1 532.47 -294.19 536.88 -294.25 541.46 C-294.28 543.16 -294.31 544.85 -294.34 546.55 C-294.36 547.43 -294.37 548.31 -294.39 549.22 C-294.87 575.73 -296.11 601.11 -305.07 626.3 C-306.15 629.34 -307 631.75 -307 635 C-306.01 634.94 -305.02 634.88 -304 634.81 C-294.21 634.93 -288.65 640.47 -282 647 C-281.64 647.38 -281.64 647.38 -279.83 649.29 C-278 651 -278 651 -276 651 C-274.67 629.04 -276.73 607.51 -279.42 585.73 C-279.68 583.58 -279.94 581.43 -280.2 579.28 C-285.24 537.63 -285.24 537.63 -292 528 C-292.33 528 -292.66 528 -293 528 Z M-223 529 C-221.25 532.88 -221.25 532.88 -219 534 C-220.75 530.12 -220.75 530.12 -223 529 Z M-219 534 C-212.78 547.93 -199.23 559.81 -188.62 570.5 C-188.39 570.74 -188.39 570.74 -187.18 571.96 C-184.8 574.33 -182.35 576.56 -179.73 578.67 C-176.94 581.05 -175.99 582.52 -175 586 C-186.48 581.78 -194.66 573.7 -203 565 C-203.33 565.66 -203.66 566.32 -204 567 C-202.98 569.41 -201.89 571.68 -200.69 574 C-200.32 574.71 -199.96 575.42 -199.58 576.15 C-198.4 578.44 -197.2 580.72 -196 583 C-195.81 583.37 -195.81 583.37 -194.84 585.24 C-182.72 608.7 -165.64 627.34 -145.68 644.54 C-143.7 646.26 -141.83 648.07 -140 649.94 C-139.42 650.52 -138.85 651.11 -138.25 651.71 C-137.84 652.14 -137.42 652.56 -137 653 C-136.67 652.34 -136.34 651.68 -136 651 C-136.91 648.99 -136.91 648.99 -138.36 646.52 C-138.63 646.06 -138.63 646.06 -139.98 643.76 C-140.56 642.79 -141.15 641.81 -141.75 640.81 C-142.34 639.83 -142.92 638.84 -143.53 637.82 C-147.98 630.44 -152.81 623.45 -158.05 616.61 C-160 614 -160 614 -160 613 C-153.69 617.97 -148.95 623.7 -144 630 C-143.2 630.97 -142.41 631.94 -141.59 632.93 C-131.26 645.79 -123.83 660.04 -116.88 674.94 C-112.71 683.84 -108.53 691.58 -102 699 C-101.3 699.85 -100.6 700.69 -99.88 701.56 C-96.31 705.77 -92.97 709.51 -88 712 C-85.83 711.59 -85.83 711.59 -84 711 C-85.84 704.13 -88.87 698.45 -92.4 692.34 C-95 687.82 -97.41 683.26 -99.69 678.56 C-107.36 662.9 -115.74 647.13 -126 633 C-126.69 632.04 -127.38 631.08 -128.09 630.09 C-136.03 619.27 -144.74 609.24 -153.88 599.44 C-154.49 598.78 -155.1 598.12 -155.73 597.44 C-160.24 592.65 -165 588.2 -169.85 583.77 C-175.62 578.47 -181.18 572.97 -186.7 567.43 C-188.39 565.73 -190.08 564.05 -191.78 562.36 C-197.4 556.74 -202.85 551.06 -208 545 C-209.78 542.99 -211.58 540.99 -213.38 539 C-214.23 538.05 -215.08 537.1 -215.96 536.12 C-216.63 535.42 -217.31 534.72 -218 534 C-218.33 534 -218.66 534 -219 534 Z M-748.69 539.19 C-750 541 -750 541 -750.5 543.31 C-749.65 547.87 -746.69 550.79 -743 553.44 C-740.4 554.17 -738.58 553.72 -736 553 C-734.66 549.3 -734.98 548.05 -736.62 544.38 C-738.6 541.24 -740.55 539.5 -744 538 C-747 538 -747 538 -748.69 539.19 Z M-94 549 C-94.81 550.88 -94.81 550.88 -95 553 C-91.27 558.62 -84.7 562.62 -79.25 566.44 C-77.65 567.58 -76.04 568.72 -74.44 569.86 C-72.96 570.91 -71.48 571.95 -70 573 C-56.88 582.36 -44.39 592.43 -31.98 602.71 C-29.62 604.67 -27.25 606.61 -24.86 608.54 C-19.25 613.07 -13.86 617.78 -8.55 622.66 C-5.77 625.21 -2.94 627.69 -0.09 630.15 C1.5 631.56 3.07 632.99 4.62 634.44 C19.81 648.58 19.81 648.58 28 649 C28.66 647.02 29.32 645.04 30 643 C31.65 643 33.3 643 35 643 C35.33 641.68 35.66 640.36 36 639 C33.36 637.02 30.72 635.04 28 633 C28.27 632.28 28.54 631.56 28.81 630.81 C29 628 29 628 26.98 625.33 C23.17 622.35 21.31 622.59 16.56 622.94 C10.55 623.37 7.74 622.81 3 619 C-1.16 614.84 -3.43 609.62 -5 604 C-4.75 600.38 -4.75 600.38 -4 598 C-2.02 597.67 -0.04 597.34 2 597 C2 595.35 2 593.7 2 592 C7.84 593.7 12.93 595.89 18.15 599.01 C20 600 20 600 22 600 C23.83 605.63 24.56 611.12 25.14 617.01 C26.24 620.83 27.62 621.99 31 624 C35.52 624.63 39.34 623.35 43.31 621.25 C49.67 615.93 49.67 615.93 50.5 611.06 C49.33 603.9 44.43 600.42 39 596.14 C33.65 592.32 27.85 589.39 22 586.44 C21.34 586.1 20.67 585.76 19.99 585.41 C-5.34 572.5 -31.68 561.7 -58 551 C-58.87 550.65 -59.74 550.29 -60.63 549.92 C-82.82 540.86 -82.82 540.86 -94 549 Z M-136 554 C-135.73 560.12 -133.01 562.65 -128.8 566.65 C-128.18 567.26 -127.55 567.88 -126.91 568.52 C-124.91 570.48 -122.89 572.43 -120.88 574.38 C-118.24 576.94 -115.62 579.51 -112.99 582.09 C-112.36 582.7 -111.74 583.31 -111.09 583.95 C-106.83 588.12 -102.83 592.43 -99 597 C-97.38 598.78 -95.76 600.55 -94.12 602.31 C-90.01 606.83 -86.09 611.46 -82.26 616.21 C-79.99 619.02 -77.65 621.76 -75.31 624.5 C-69.07 631.98 -63.37 639.84 -57.65 647.73 C-56.17 649.77 -54.67 651.81 -53.16 653.84 C-47.07 662.13 -41.92 670.71 -37.04 679.78 C-36.12 681.48 -35.19 683.18 -34.25 684.88 C-33.98 685.37 -33.98 685.37 -32.64 687.87 C-32.1 688.57 -31.56 689.27 -31 690 C-29.68 690 -28.36 690 -27 690 C-25.25 688 -25.25 688 -24 686 C-23.32 686.66 -22.64 687.32 -21.94 688 C-18.22 690.53 -16.42 690.7 -12 690 C-8.22 687.81 -5.68 685.03 -4 681 C-1.91 672.14 -6.46 664.42 -10.76 656.99 C-13.43 652.7 -16.55 648.78 -19.72 644.86 C-22.48 641.39 -24.76 637.82 -27 634 C-15.47 638.82 -9.23 647.54 -2.98 657.97 C-0.15 662.6 2.51 665.89 7 669 C10.36 669 12.36 668.3 15.38 666.88 C17.28 664.67 17.88 663.01 17.7 660.08 C15.07 652.23 6.34 646.49 0.1 641.55 C-3.68 638.51 -7.21 635.19 -10.75 631.88 C-11.36 631.3 -11.98 630.73 -12.61 630.14 C-16.27 626.69 -19.85 623.18 -23.38 619.6 C-26.44 616.58 -29.73 613.8 -33 611 C-34.09 610.06 -35.18 609.11 -36.27 608.17 C-43.07 602.3 -49.92 596.53 -57 591 C-57.65 590.49 -58.3 589.98 -58.97 589.46 C-63.59 585.85 -68.22 582.25 -72.86 578.66 C-74.71 577.22 -76.57 575.78 -78.42 574.33 C-84.69 569.46 -91.06 564.73 -97.5 560.06 C-98.27 559.51 -99.03 558.95 -99.82 558.38 C-101.87 556.9 -103.93 555.45 -106 554 C-106.87 553.39 -107.75 552.77 -108.64 552.14 C-115.95 548.6 -128.8 550.4 -136 554 Z M78 555 C71.26 562.46 72.77 577.16 72.73 586.73 C73 590 73 590 75 593 C76.32 593 77.64 593 79 593 C79.65 591.29 80.3 589.59 80.94 587.88 C81.12 587.4 81.12 587.4 82.03 584.99 C83.82 579.48 84.18 574.21 84.25 568.44 C84.28 567.16 84.3 565.88 84.33 564.56 C83.98 560.79 83.34 558.94 81 556 C80.01 555.67 79.02 555.34 78 555 Z M-725 561 C-725.58 564.13 -725.51 566.14 -723.87 568.91 C-721.28 572.21 -719.74 573.79 -715.62 574.94 C-714.76 574.96 -713.89 574.98 -713 575 C-711.09 572.85 -710.07 571.42 -709.56 568.56 C-710.15 565.1 -711.57 563.5 -714 561 C-717.77 558.45 -721.62 557.62 -725 561 Z M-277 567 C-276.36 575.98 -275.53 584.93 -274.56 593.88 C-274.43 595.09 -274.3 596.31 -274.16 597.57 C-273.24 606.06 -272.22 614.54 -271 623 C-270.67 623 -270.34 623 -270 623 C-269.67 611.51 -269.82 600.23 -271.31 588.81 C-271.43 587.89 -271.55 586.98 -271.67 586.03 C-272.59 579.52 -274.14 573.3 -276 567 C-276.33 567 -276.66 567 -277 567 Z M-224 567 C-224.99 568.39 -225.97 569.79 -226.94 571.19 C-232.31 578.21 -239.6 580.99 -248 583 C-247.38 584.46 -246.75 585.92 -246.12 587.38 C-245.78 588.19 -245.43 589 -245.07 589.84 C-244 592 -244 592 -242 594 C-234.65 594.55 -228.02 592.04 -222 588 C-219.61 585.91 -217.42 583.86 -216 581 C-216.31 577.47 -218.18 574.74 -220 571.75 C-220.27 571.3 -220.27 571.3 -221.62 569.05 C-221.85 568.71 -221.85 568.71 -223 567 C-223.33 567 -223.66 567 -224 567 Z M-701 583 C-703.18 586.27 -703.72 587.21 -703 591 C-700.25 593.88 -700.25 593.88 -697 596 C-694.64 595.87 -693.66 595.66 -692 594 C-691.6 590.42 -691.53 588.64 -693.69 585.69 C-696.2 583.86 -697.94 583.34 -701 583 Z M-214 585 C-215.01 586.22 -216.01 587.45 -217 588.69 C-223.11 595.74 -229.96 598.42 -239 600 C-238.55 601.44 -238.09 602.88 -237.62 604.31 C-237.5 604.71 -237.5 604.71 -236.85 606.74 C-236 609 -236 609 -234 612 C-223.36 609.84 -214.23 605.23 -207 597 C-208.32 592.39 -210.15 588.86 -213 585 C-213.33 585 -213.66 585 -214 585 Z M-262 598 C-261.99 598.74 -261.98 599.48 -261.97 600.24 C-261.93 603.64 -261.9 607.04 -261.88 610.44 C-261.86 611.6 -261.84 612.77 -261.82 613.97 C-261.79 620.65 -262.25 626.54 -264 633 C-265.15 633.16 -265.15 633.16 -271 634 C-271.29 638 -271.52 642 -271.75 646 C-271.79 646.55 -271.79 646.55 -272 649.35 C-272.85 665.83 -266.48 681.01 -260.94 696.25 C-260.27 698.11 -259.59 699.97 -258.92 701.83 C-251.07 723.55 -242.88 745.11 -233 766 C-232.7 766.64 -232.39 767.29 -232.08 767.95 C-227.3 778.06 -227.3 778.06 -224 781 C-223.01 780.67 -222.02 780.34 -221 780 C-217.55 773.11 -221.99 762.17 -224.15 755.31 C-226.43 748.5 -229.22 741.89 -231.94 735.25 C-236.79 723.36 -241.02 711.52 -244 699 C-244.18 698.24 -244.37 697.49 -244.56 696.71 C-247.31 685.14 -248.81 673.41 -250.25 661.62 C-250.34 660.89 -250.43 660.16 -250.52 659.41 C-250.77 657.31 -251.02 655.21 -251.27 653.1 C-251.41 651.88 -251.55 650.65 -251.7 649.39 C-251.98 646.24 -252.06 643.16 -252 640 C-251.89 640.66 -251.77 641.32 -251.65 642.01 C-247.9 663.29 -243.41 684.42 -234 704 C-233.67 704 -233.34 704 -233 704 C-231.96 668.66 -242.36 636.72 -257 605 C-257.31 604.33 -257.61 603.66 -257.93 602.97 C-259.75 599.12 -259.75 599.12 -262 598 Z M-427 602 C-429.23 603.46 -431.2 604.93 -433.25 606.62 C-433.87 607.13 -434.49 607.63 -435.13 608.14 C-437.1 609.75 -439.05 611.37 -441 613 C-441.6 613.49 -442.2 613.99 -442.82 614.5 C-457.77 626.85 -472.31 640.48 -484 656 C-484.96 657.23 -485.92 658.46 -486.88 659.69 C-500.73 677.59 -513.76 696.48 -512 720 C-511.12 723.3 -510.35 724.35 -508 727 C-504.1 729.13 -500.38 730.34 -496 731 C-495.34 732.98 -494.68 734.96 -494 737 C-490.27 733.46 -487.23 729.74 -484.31 725.5 C-476.68 714.63 -468.52 704.19 -460 694 C-459.19 693 -458.37 692 -457.53 690.96 C-449.84 681.68 -441.38 673.16 -432.88 664.62 C-432.27 664.02 -431.67 663.41 -431.06 662.79 C-424.38 656.07 -417.66 649.65 -410.21 643.78 C-408.34 642.27 -406.65 640.74 -405 639 C-406.52 634.54 -408.99 630.99 -411.69 627.19 C-415.91 621.09 -419.08 614.93 -421.75 608.02 C-422.43 606.31 -423.21 604.65 -424 603 C-424.99 602.67 -425.98 602.34 -427 602 Z M-210.06 606.75 C-216.3 612.42 -222.94 614.94 -231 617 C-229.35 620.3 -227.7 623.6 -226 627 C-216.06 625.98 -207.53 620.78 -200.75 613.62 C-199.83 610.41 -200.38 609.62 -201.81 606.69 C-202.52 605.45 -203.24 604.21 -204 603 C-206.99 603 -207.94 604.7 -210.06 606.75 Z M-671 607 C-671.56 609.25 -671.56 609.25 -671 612 C-667.97 615.83 -664.61 618.24 -659.75 619 C-656 619 -656 619 -653 617 C-652.5 614.12 -652.5 614.12 -653 611 C-656.84 606.93 -661.23 605.25 -666.75 604.75 C-669 605 -669 605 -671 607 Z M64.31 617.44 C59.66 623.99 57.42 629.96 58 638 C60.25 638.69 60.25 638.69 63 639 C68.57 635.84 72.47 630.77 75 625 C75.68 622.22 75.9 619.9 76 617 C74 615 74 615 70.69 614.5 C67 615 67 615 64.31 617.44 Z M-203.81 622.69 C-209.79 627.15 -215.95 629.67 -223 632 C-221.35 634.64 -219.7 637.28 -218 640 C-209.04 639.71 -202.28 636.46 -195.88 630.12 C-195.26 629.42 -194.64 628.72 -194 628 C-194.5 626.51 -194.5 626.51 -197 619 C-200.05 619 -201.45 620.81 -203.81 622.69 Z M-574.94 627 C-576.67 630.26 -576.75 633.47 -576 637 C-573.94 639.56 -573.94 639.56 -571 641 C-567.06 641 -564.8 640.52 -561.5 638.38 C-560 636 -560 636 -559.94 632.44 C-561 629 -561 629 -563.12 627.06 C-567.2 625.56 -570.96 624.95 -574.94 627 Z M-631 629 C-632 630 -632 630 -632.44 632.75 C-632 636 -632 636 -629.44 638.88 C-626.8 640.82 -625.7 641.04 -622.25 641.5 C-621.18 641.34 -620.11 641.17 -619 641 C-617 638 -617 638 -617.12 635.5 C-618.25 632.29 -618.95 631.52 -622 630 C-624.99 629.41 -627.95 629.02 -631 629 Z M-197.38 637.69 C-202.43 641.61 -208.05 643.76 -214 646 C-212.68 648.31 -211.36 650.62 -210 653 C-202.49 653.63 -197.94 651.06 -191.88 646.81 C-190 644 -190 644 -190.14 641.68 C-190.64 639.39 -191.24 637.21 -192 635 C-194.68 635 -195.34 635.98 -197.38 637.69 Z M-306 645 C-307.59 649.94 -306.61 654.67 -305.88 659.69 C-305.74 660.66 -305.61 661.62 -305.46 662.62 C-303.72 674.47 -301.34 686.2 -298.94 697.94 C-298.45 700.34 -297.97 702.75 -297.48 705.15 C-293.33 725.65 -288.99 746.12 -284.59 766.57 C-283.48 771.74 -282.39 776.92 -281.34 782.11 C-281.1 783.25 -280.87 784.4 -280.63 785.57 C-280.23 787.55 -279.83 789.53 -279.44 791.51 C-279.36 791.92 -279.36 791.92 -278.94 794.01 C-278.8 794.7 -278.67 795.38 -278.53 796.09 C-277.94 798.23 -277.05 800.05 -276 802 C-275.67 802 -275.34 802 -275 802 C-275.01 801.38 -275.02 800.76 -275.03 800.12 C-275.07 797.27 -275.1 794.42 -275.12 791.56 C-275.14 790.59 -275.16 789.61 -275.18 788.61 C-275.22 782.46 -274.64 776.93 -273 771 C-272.73 770.03 -272.46 769.06 -272.19 768.06 C-271 766 -271 766 -268.81 764.69 C-264.11 763.54 -260.44 763.45 -255.88 765.19 C-247.29 770.6 -242.17 779.05 -239.45 788.64 C-238.97 791.15 -238.92 793.46 -239 796 C-241.97 795.67 -244.94 795.34 -248 795 C-248 797.31 -248 799.62 -248 802 C-251.8 803.27 -253.71 802.5 -257.56 801.5 C-263.78 799.89 -263.78 799.89 -266 801 C-266.33 807.13 -266.39 811.63 -263 817 C-256.37 816.97 -250.65 815.38 -244.5 813.06 C-243.79 812.8 -243.09 812.53 -242.36 812.26 C-239.43 811.12 -237.24 810.24 -235 808 C-232.14 783.52 -244.67 757.72 -253.06 735.44 C-258.83 720.1 -263.59 704.51 -268.06 688.75 C-268.41 687.55 -268.75 686.35 -269.11 685.11 C-269.76 682.83 -270.41 680.54 -271.04 678.24 C-275 664.39 -282.11 652 -294.31 643.81 C-298.76 641.35 -302.78 640.33 -306 645 Z M-407.38 649.25 C-408.31 650.04 -409.25 650.83 -410.21 651.64 C-411.13 652.42 -412.05 653.2 -413 654 C-413.8 654.59 -414.59 655.19 -415.41 655.8 C-418.31 658.27 -420.68 660.97 -423.15 663.86 C-426.76 668.03 -430.6 671.99 -434.39 676 C-438.71 680.57 -442.89 685.24 -447 690 C-447.49 690.57 -447.99 691.14 -448.5 691.73 C-451.5 695.21 -454.48 698.71 -457.46 702.2 C-458.45 703.36 -459.45 704.52 -460.44 705.68 C-489.4 739.43 -489.4 739.43 -494 751 C-493.62 753.25 -493.62 753.25 -493 755 C-491.76 754.75 -490.52 754.5 -489.25 754.25 C-487.14 753.83 -487.14 753.83 -485 754 C-481.65 756.65 -479.87 759.74 -477.94 763.5 C-476.17 766.91 -474.39 769.99 -472 773 C-471.28 772.69 -470.56 772.38 -469.81 772.06 C-464.71 770.13 -461.36 770.02 -456 771 C-450.26 762.63 -445.4 754.07 -440.94 744.95 C-436.41 735.72 -431.52 726.72 -426.52 717.74 C-425.52 715.93 -424.52 714.12 -423.52 712.31 C-417.53 701.39 -411.18 690.97 -403.81 680.92 C-392.76 665.73 -392.76 665.73 -394 656 C-396.05 647.95 -396.05 647.95 -399 645 C-403.09 645 -404.29 646.63 -407.38 649.25 Z M-594 646 C-596.25 648.5 -596.25 648.5 -598 651 C-596.75 654.65 -596.33 655.78 -593 658 C-589.94 658.25 -589.94 658.25 -587 658 C-585 656 -585 656 -584.56 653.12 C-585 650 -585 650 -587.25 647.62 C-590 646 -590 646 -594 646 Z M-554.81 648.69 C-556.25 651.49 -556.62 652.89 -556 656 C-553.16 659.18 -551.58 659.94 -547.31 660.38 C-544 660 -544 660 -542 658 C-541.5 655.19 -541.5 655.19 -542 652 C-544.76 649.05 -546.7 647.27 -550.69 646.44 C-553 647 -553 647 -554.81 648.69 Z M-319.79 650.78 C-320.93 652.02 -322.06 653.26 -323.19 654.5 C-323.77 655.14 -324.36 655.78 -324.96 656.44 C-326.64 658.29 -328.32 660.14 -330 662 C-330.79 662.86 -331.57 663.72 -332.38 664.61 C-337.54 670.35 -338.15 674.19 -338.13 681.93 C-338.13 682.82 -338.13 683.72 -338.14 684.65 C-338.14 686.56 -338.13 688.48 -338.13 690.39 C-338.13 693.24 -338.13 696.08 -338.14 698.93 C-338.14 707.97 -338 716.99 -337.52 726.02 C-336.99 736.08 -336.85 746.14 -336.75 756.21 C-336.75 757.02 -336.74 757.84 -336.73 758.67 C-336.65 766.29 -336.58 773.91 -336.52 781.53 C-336.49 785.74 -336.45 789.96 -336.4 794.17 C-336.39 795.75 -336.37 797.33 -336.37 798.91 C-336.32 806.92 -336.08 814.87 -335.23 822.84 C-335.09 824.12 -334.95 825.4 -334.81 826.72 C-333.91 830.37 -333 831.78 -330 834 C-326.16 834.04 -324.43 833.34 -321.4 830.97 C-320.59 830.15 -319.78 829.34 -318.94 828.5 C-315.72 825.29 -313.66 823.24 -309 823 C-306.06 824.63 -303.67 826.43 -301.12 828.61 C-297.73 831.4 -295.19 833.41 -290.69 833.62 C-287 833 -287 833 -285.3 831.33 C-276.31 815.21 -290.21 779.41 -294.02 762.61 C-301.67 728.89 -308.23 695.02 -311.81 660.6 C-311.88 659.98 -311.88 659.98 -312.21 656.86 C-312.32 655.79 -312.42 654.72 -312.53 653.62 C-313 651 -313 651 -315 648 C-317 648 -317 648 -319.79 650.78 Z M-194.81 653.88 C-197.83 655.72 -200.82 657.47 -204 659 C-201.88 661.12 -201.88 661.12 -199 663 C-194.57 662.28 -191.64 660.65 -189 657 C-188.75 653.75 -188.75 653.75 -189 651 C-191.07 651 -193.12 652.84 -194.81 653.88 Z M33.94 668.38 C32 671 32 671 31.56 673.69 C32 676 32 676 34 678 C40.13 679.02 43.69 676.81 48.86 673.61 C51 672 51 672 53 669 C52.62 666.31 52.62 666.31 52 664 C45.1 662.05 39.45 664.1 33.94 668.38 Z M-195 678 C-194.88 679.28 -194.75 680.56 -194.62 681.88 C-194.56 682.59 -194.49 683.31 -194.41 684.05 C-194 686 -194 686 -192 688 C-191.49 687.72 -190.98 687.45 -190.46 687.16 C-186.29 684.97 -182.76 683.48 -178 683 C-178.33 681.02 -178.66 679.04 -179 677 C-184.51 675.62 -190.13 674.76 -195 678 Z M-364 688 C-366.59 691.96 -367.53 695.9 -368.46 700.47 C-369.6 705.79 -371.12 711.01 -372.56 716.25 C-372.89 717.48 -373.23 718.72 -373.57 719.99 C-376.29 730 -379.57 739.77 -383 749.56 C-386.8 760.41 -390.41 771.26 -393.56 782.31 C-393.87 783.4 -394.18 784.48 -394.5 785.59 C-400.44 806.89 -400.44 806.89 -400.38 817.06 C-400.38 818.27 -400.39 819.48 -400.4 820.72 C-399.86 825.17 -398.35 827.82 -395 830.75 C-391.36 833.03 -387.7 833.68 -383.47 833.7 C-379.08 832.46 -376.88 828.83 -374.24 825.29 C-372 823 -372 823 -368.92 822 C-366 822 -366 822 -364.28 823.16 C-362.87 825.19 -361.69 827.24 -360.56 829.44 C-357.03 835.89 -357.03 835.89 -354 838 C-351 838.5 -351 838.5 -348 838 C-345.15 835.77 -344.15 834.45 -343 831 C-342.91 828.93 -342.87 826.86 -342.87 824.79 C-342.87 823.5 -342.86 822.21 -342.86 820.88 C-342.86 819.47 -342.86 818.05 -342.87 816.63 C-342.87 815.16 -342.87 813.69 -342.86 812.21 C-342.86 809.1 -342.86 806 -342.87 802.89 C-342.88 799 -342.87 795.1 -342.87 791.21 C-342.84 774.13 -343.08 757.1 -343.75 740.03 C-344.21 727.92 -344.36 715.8 -344.56 703.69 C-344.61 701.17 -344.65 698.65 -344.69 696.13 C-344.8 690.09 -344.9 684.04 -345 678 C-351.43 678 -359.29 683.99 -364 688 Z M-396.43 682.37 C-397.27 683.52 -398.08 684.69 -398.88 685.88 C-399.33 686.53 -399.79 687.18 -400.26 687.86 C-412.87 706.2 -423.98 725.68 -435 745 C-435.22 745.38 -435.22 745.38 -436.31 747.29 C-449.23 769.88 -449.23 769.88 -447 782 C-445.36 787.09 -443.08 792.47 -439 796 C-436.74 796.42 -434.53 796.57 -432.23 796.71 C-428.75 797.16 -426.72 798.86 -424 801 C-414.92 808.05 -414.92 808.05 -411 809 C-409.33 808.71 -407.66 808.38 -406 808 C-403.38 799.93 -400.93 791.86 -398.88 783.62 C-397.02 776.27 -394.74 769.11 -392.33 761.92 C-387 746 -382.43 729.95 -378.25 713.69 C-377.98 712.64 -377.71 711.6 -377.43 710.52 C-376.65 707.54 -375.89 704.56 -375.14 701.57 C-374.91 700.68 -374.68 699.79 -374.44 698.86 C-372.51 691.05 -372.51 691.05 -374 687 C-378.59 682.76 -384.77 680.46 -390.88 679.59 C-394 680 -394 680 -396.43 682.37 Z M-183.69 689 C-184.87 689.37 -186.05 689.74 -187.26 690.12 C-187.71 690.27 -187.71 690.27 -190 691 C-189.29 695.84 -187.64 697.73 -184 701 C-183.31 700.65 -182.63 700.3 -181.92 699.94 C-181.02 699.49 -180.12 699.03 -179.19 698.56 C-178.74 698.34 -178.74 698.34 -176.48 697.19 C-174 696 -174 696 -171 695 C-172.88 689.25 -172.88 689.25 -174 687 C-177.57 687 -180.28 687.92 -183.69 689 Z M6.81 689.62 C4.66 692.44 4.32 694.51 4 698 C7.15 698.99 8.63 699.14 11.75 697.94 C14 696 14 696 14.94 692.94 C14.95 692.45 14.95 692.45 15 690 C14.34 689.34 13.68 688.68 13 688 C9 688 9 688 6.81 689.62 Z M-174.07 698.54 C-174.75 698.9 -175.43 699.26 -176.12 699.62 C-176.81 699.97 -177.49 700.31 -178.2 700.66 C-180.29 702.22 -181.02 703.61 -182 706 C-180.68 707.65 -179.36 709.3 -178 711 C-173.96 709.41 -169.98 707.72 -166 706 C-167.47 700.38 -167.47 700.38 -169.82 698.7 C-172 698 -172 698 -174.07 698.54 Z M-171.75 711.94 C-172.55 712.32 -173.35 712.7 -174.17 713.09 C-174.78 713.39 -175.38 713.69 -176 714 C-174.68 716.64 -173.36 719.28 -172 722 C-168.7 720.68 -165.4 719.36 -162 718 C-162.33 715.69 -162.66 713.38 -163 711 C-166.59 709.69 -168.37 710.3 -171.75 711.94 Z M-38 716 C-38.24 716.35 -38.24 716.35 -39.44 718.12 C-42.33 721.38 -45.35 723.27 -49.07 725.47 C-51 727 -51 727 -51.83 729.12 C-51.89 729.74 -51.94 730.36 -52 731 C-50.37 732.63 -48.56 732.29 -46.31 732.38 C-42.64 732.34 -40.39 732.08 -37.5 729.75 C-32.92 724.71 -32.92 724.71 -33.12 720.38 C-34 718 -34 718 -36.06 716.69 C-36.7 716.46 -37.34 716.23 -38 716 Z M-168 725 C-166.25 729.88 -166.25 729.88 -164 731 C-162.44 729.81 -162.44 729.81 -161 728 C-161.31 725.31 -161.31 725.31 -162 723 C-165 723 -165 723 -168 725 Z M-500.69 775.56 C-502.6 779.12 -502.58 780.96 -502 785 C-499.62 790.29 -496.79 795.57 -493 800 C-492.34 800 -491.68 800 -491 800 C-491 800.66 -491 801.32 -491 802 C-488 804 -488 804 -485.31 803.62 C-484.55 803.42 -483.79 803.21 -483 803 C-481.29 796.43 -482.82 791.91 -486 786 C-488.15 782.83 -490.47 779.87 -493 777 C-493.5 776.42 -494.01 775.84 -494.53 775.25 C-496.92 773.22 -498.46 773.5 -500.69 775.56 Z M-457 805 C-457.8 805.95 -458.61 806.9 -459.44 807.88 C-459.66 808.14 -459.66 808.14 -460.81 809.49 C-462.48 811.61 -463 812.99 -463.44 815.69 C-462.8 820.48 -460.55 822.96 -457 826 C-454.12 827.93 -451.22 829.77 -448.26 831.57 C-443.7 834.39 -440.19 837.52 -436.75 841.66 C-435 843 -435 843 -432.29 842.71 C-431.53 842.48 -430.78 842.24 -430 842 C-429.14 838.11 -428.76 835.66 -430.12 831.88 C-433.89 826.1 -439.47 821.67 -444.5 817 C-448.74 813.07 -452.94 809.12 -457 805 Z M-250 826 C-251.5 828.5 -251.5 828.5 -252 831 C-250 834 -250 834 -248.05 834.62 C-242.78 835.21 -239.59 835.02 -235 832 C-233 830 -233 830 -232.75 827.5 C-233 825 -233 825 -235 823 C-240.51 822.15 -245.38 822.73 -250 826 Z M-412 847 C-410.59 850.42 -409.09 851.99 -406 854 C-400.73 855.93 -394.61 857.96 -389 857 C-386.62 855 -386.62 855 -385 853 C-385.91 849 -387.53 847.38 -390.88 845.25 C-398.46 840.7 -406.14 839.67 -412 847 Z M-284 844 C-284.66 845.32 -285.32 846.64 -286 848 C-285.34 848.66 -284.68 849.32 -284 850 C-281.94 849.75 -281.94 849.75 -280 849 C-279.67 848.34 -279.34 847.68 -279 847 C-279.66 846.01 -280.32 845.02 -281 844 C-281.99 844 -282.98 844 -284 844 Z M-314 852 C-313.12 856.88 -313.12 856.88 -312 858 C-307.78 858.41 -305.4 858.2 -301.56 856.31 C-299 854 -299 854 -298.56 851.31 C-299 849 -299 849 -300 848 C-305.9 847.26 -309.69 847.55 -314 852 Z M-351.06 854.25 C-351.75 854.85 -352.45 855.46 -353.16 856.08 C-355.55 858.57 -357 860.62 -357 864.12 C-356 866 -356 866 -353.31 867.44 C-349.04 868.16 -347.53 867.46 -344 865 C-341.17 861.74 -339.98 860.1 -340.06 855.75 C-341 853 -341 853 -344 851 C-347.7 851 -348.36 851.84 -351.06 854.25 Z " class="icon" transform="translate(885,75)"/>
<path d="M0 0 C2.27 1.37 2.27 1.37 4 3 C4.56 5.38 4.56 5.38 4 8 C0.15 12.78 -5.73 17.24 -12 18 C-19.1 18.72 -19.1 18.72 -22.5 16 C-23 15.34 -23.49 14.68 -24 14 C-21.65 7.33 -18.94 4.3 -12.75 0.69 C-8.55 -0.36 -4.29 -0.65 0 0 Z " class="icon" transform="translate(826,146)"/>
<path d="M0 0 C-3.06 11.6 -15.24 20.8 -25 27 C-28.66 28.84 -31.85 30 -36 30 C-36 29.34 -36 28.68 -36 28 C-34.31 26.75 -34.31 26.75 -32 25.34 C-27.14 22.21 -23.13 18.59 -19 14.56 C-3.78 0 -3.78 0 0 0 Z " class="icon" transform="translate(748,173)"/>
<path d="M0 0 C2.97 2.32 2.97 2.32 3.38 5.31 C2.87 9.65 1.36 10.87 -2 13.56 C-5.81 15.43 -8.9 15.83 -13.12 15.81 C-13.64 15.82 -13.64 15.82 -16.26 15.83 C-19 15.56 -19 15.56 -22 13.56 C-23.05 10.2 -23.25 8.27 -22.06 4.94 C-16.45 -1.53 -7.81 -3.74 0 0 Z " class="icon" transform="translate(856,178.4375)"/>
<path d="M0 0 C-7.19 18.8 -18.91 28.67 -37 37 C-37.66 36.34 -38.32 35.68 -39 35 C-14.03 0 -14.03 0 0 0 Z M-15.62 13.81 C-16.42 14.52 -17.22 15.23 -18.04 15.96 C-20 18 -20 18 -21 21 C-16.5 19.74 -13.37 18.27 -10 15 C-8.69 12.25 -8.69 12.25 -8 10 C-11.91 10 -12.77 11.23 -15.62 13.81 Z " class="icon" transform="translate(780,180)"/>
<path d="M0 0 C-1 3 -1 3 -4.46 4.9 C-5.9 5.59 -7.36 6.27 -8.81 6.94 C-17.57 10.98 -17.57 10.98 -21 15 C-20.34 14.67 -19.68 14.34 -19 14 C-17 13.96 -15 13.96 -13 14 C-14.44 18.32 -17.7 19.43 -21.5 21.5 C-22.23 21.9 -22.95 22.3 -23.7 22.71 C-28.69 25.42 -33.45 27.68 -39 29 C-39.99 28.67 -40.98 28.34 -42 28 C-40.39 24.02 -37.63 21.28 -34.62 18.31 C-34.1 17.79 -33.57 17.26 -33.02 16.72 C-23.36 7.33 -14.04 -0.86 0 0 Z " class="icon" transform="translate(801,207)"/>
<path d="M0 0 C1.71 3.09 1.47 5.35 1 8.81 C-1.41 12.81 -3.26 14.9 -7.75 16.25 C-13.44 17.3 -18.69 16.71 -24.06 14.62 C-26 12.81 -26 12.81 -26.62 10 C-25.81 5.83 -24.31 3.37 -21 0.81 C-13.52 -3.19 -7.55 -4.48 0 0 Z " class="icon" transform="translate(865,222.1875)"/>
<path d="M0 0 C2.68 1.34 4.13 2.36 5.8 4.9 C6.94 9.14 7.32 12.6 5.67 16.71 C0.53 22.7 -4.76 25.37 -12.5 26.01 C-20.84 25.76 -29.07 23.67 -37.2 21.9 C-35.87 19.15 -34.55 16.94 -32.52 14.65 C-30.81 12.72 -29.11 10.79 -27.46 8.81 C-19.84 -0.27 -11.83 -5 0 0 Z " class="icon" transform="translate(862.203125,277.1015625)"/>
<path d="M0 0 C0.39 0.08 0.39 0.08 2.34 0.48 C4.79 1.35 5.89 2.24 7.5 4.25 C8.74 8.13 8.57 10.03 7.31 13.94 C5.52 17.21 4.59 18.36 1.5 20.25 C-5.52 21.86 -10.92 19.5 -16.96 16.05 C-19.8 14.04 -22.11 11.77 -24.5 9.25 C-21.73 7.77 -18.96 6.29 -16.19 4.81 C-15.4 4.39 -14.62 3.97 -13.81 3.54 C-13.05 3.13 -12.29 2.73 -11.51 2.32 C-10.82 1.94 -10.12 1.57 -9.4 1.19 C-5.86 -0.56 -3.79 -0.83 0 0 Z " class="icon" transform="translate(868.5,350.75)"/>
<path d="M0 0 C1.85 2.87 2.01 5.38 2.12 8.75 C0.81 12.61 -0.56 13.57 -4.12 15.56 C-14.23 18.81 -26.04 17.25 -35.88 13.75 C-38.88 11.75 -38.88 11.75 -39.44 9.44 C-38.76 6.18 -37.4 4.91 -34.78 2.95 C-24.05 -3.79 -11.25 -7.5 0 0 Z " class="icon" transform="translate(843.875,432.25)"/>
<path d="M0 0 C0.41 4.5 0.41 4.5 -1.4 6.7 C-11.07 13.69 -20.21 14.71 -32 14 C-33.06 13.78 -34.11 13.56 -35.2 13.34 C-39.81 12.93 -42.92 13.85 -47.23 15.34 C-47.61 15.47 -47.61 15.47 -49.54 16.1 C-51.95 16.88 -54.35 17.69 -56.75 18.5 C-59.17 19.31 -61.58 20.11 -64.01 20.9 C-65.51 21.4 -67.01 21.9 -68.5 22.41 C-73.66 24.11 -73.66 24.11 -77 23 C-68.81 19.86 -60.6 16.85 -52.31 14.02 C-43.89 11.15 -35.85 8.14 -27.86 4.25 C-19.38 0.54 -9.14 -2.01 0 0 Z " class="icon" transform="translate(238,468)"/>
<path d="M0 0 C2.56 1.62 2.56 1.62 4 4 C4.78 7.99 4.25 9.59 2.12 13.06 C-2.33 17.86 -8.33 20.64 -14.75 21.5 C-18.33 20.95 -20.89 19.82 -24 18 C-22.66 11.53 -21.18 7.12 -15.75 3.12 C-10.72 -0.1 -5.91 -0.88 0 0 Z " class="icon" transform="translate(155,493)"/>
<path d="M0 0 C0.5 0.33 0.5 0.33 3 2 C2.92 4.72 2.44 6.49 0.66 8.56 C-6.33 14.91 -13.23 16.48 -22.5 16.19 C-23.32 16.17 -24.14 16.16 -24.99 16.15 C-27 16.11 -29 16.06 -31 16 C-27.25 13 -27.25 13 -25 13 C-24.77 12.26 -24.55 11.51 -24.31 10.75 C-21.82 5.53 -17.82 3.78 -12.62 1.75 C-8.15 0.22 -4.69 -0.59 0 0 Z " class="icon" transform="translate(222,508)"/>
<path d="M0 0 C4.24 2.51 7.29 5.95 9.5 10.38 C10 15.56 10 15.56 9.5 18.38 C5.61 22.59 1.56 23.51 -4 23.81 C-10.54 23.75 -16.2 21.1 -21.5 17.38 C-24.5 13.18 -24.5 13.18 -24.5 10.38 C-25.82 9.72 -27.14 9.05 -28.5 8.38 C-28.17 5.33 -27.52 4.39 -25.25 2.25 C-17.96 -2.72 -8.15 -3.73 0 0 Z " class="icon" transform="translate(889.5,509.625)"/>
<path d="M0 0 C2.87 1.97 5.01 3.5 7.19 6.19 C7.72 9.25 7.72 9.25 7.69 12.62 C7.7 13.74 7.71 14.85 7.72 16 C7.07 19.87 5.98 21.46 3.19 24.19 C-2.62 27.46 -8.36 28.72 -14.94 27.84 C-17.31 27.02 -18.31 26.2 -19.81 24.19 C-20.54 21.71 -20.54 21.71 -21 19 C-21.16 18.1 -21.32 17.2 -21.48 16.27 C-21.59 15.58 -21.7 14.9 -21.81 14.19 C-22.78 13.88 -23.75 13.57 -24.75 13.25 C-27.81 12.19 -27.81 12.19 -28.81 11.19 C-29.38 7.77 -29.02 6.48 -27 3.62 C-19.44 -3.12 -8.88 -4.73 0 0 Z " class="icon" transform="translate(834.8125,513.8125)"/>
<path d="M0 0 C0.66 0.33 1.32 0.66 2 1 C2 3.75 2 3.75 1 7 C-3.67 10.74 -9.18 11.7 -15 12 C-15.66 11.67 -16.32 11.34 -17 11 C-16.52 6.68 -15.34 4.77 -12 2 C-8.23 -0.69 -4.47 -0.22 0 0 Z " class="icon" transform="translate(249,537)"/>
<path d="M0 0 C4.65 2.5 7.47 5.45 10.38 9.81 C10.71 14.83 10.08 18.77 7.25 22.94 C3.49 25.39 1.82 25.47 -2.62 24.81 C-11.86 21.95 -11.86 21.95 -14.62 17.81 C-14.33 16.47 -14 15.14 -13.62 13.81 C-13.96 12.82 -14.28 11.83 -14.62 10.81 C-15.49 2.96 -15.49 2.96 -13.06 -0.25 C-8.38 -2.05 -4.7 -1.54 0 0 Z " class="icon" transform="translate(907.625,562.1875)"/>
<path d="M0 0 C1.99 2.23 2.02 3.42 1.94 6.38 C0.26 11.08 -2.67 14 -6.56 16.94 C-10.26 18.08 -11.99 17.81 -15.75 17.25 C-20.99 16.6 -23.45 17.38 -27.75 20.44 C-29.19 21.6 -30.62 22.77 -32 24 C-32.66 23.67 -33.32 23.34 -34 23 C-33.14 22.24 -32.29 21.48 -31.4 20.69 C-20.99 11.33 -20.99 11.33 -17.06 5.94 C-12.24 -0.57 -7.72 -1.93 0 0 Z " class="icon" transform="translate(197,568)"/>
<path d="M0 0 C3 1.09 5.23 2.13 7.5 4.4 C7.5 5.72 7.5 7.04 7.5 8.4 C2.26 11.02 -5.1 9.78 -10.5 8.09 C-13.55 7.03 -15.34 5.8 -17.5 3.4 C-17.17 2.41 -16.84 1.42 -16.5 0.4 C-11.83 -1.94 -4.96 -1.19 0 0 Z " class="icon" transform="translate(860.5,568.6015625)"/>
<path d="M0 0 C2.96 2.22 4.5 3.88 6 7.25 C6 12.92 3.94 17.6 0.81 22.25 C-4.39 27.33 -9.7 31.01 -17.13 30.99 C-19.42 30.91 -21.71 30.83 -24 30.74 C-27 31 -27 31 -28.9 32.51 C-29.26 33 -29.63 33.49 -30 34 C-30.66 33.67 -31.32 33.34 -32 33 C-30.35 31.35 -28.7 29.7 -27 28 C-27.33 27.01 -27.66 26.02 -28 25 C-28.61 19.32 -28.58 14.43 -25.32 9.59 C-18.83 1.77 -10.28 -3.21 0 0 Z " class="icon" transform="translate(241,590)"/>
<path d="M0 0 C5.33 0.06 8.29 0.58 12.31 4.31 C12.81 4.76 13.3 5.21 13.81 5.67 C15.25 7.12 15.25 7.12 17.31 10.31 C17.12 14.19 17.12 14.19 16.31 17.31 C11.6 18.88 7.81 17.13 3.31 15.31 C-0.7 13.03 -4.42 10.58 -7.69 7.31 C-7.02 0.75 -6.47 0.15 0 0 Z " class="icon" transform="translate(868.6875,611.6875)"/>
<path d="M0 0 C4.85 -0.49 8.06 -0.54 12.38 1.94 C15.76 5.28 17.33 9.34 18 14 C17.68 16.9 17.14 19.86 15 22 C9.36 23.01 5.8 20.44 1.17 17.61 C-1 16 -1 16 -3 13 C-3.69 8.2 -1.78 4.37 0 0 Z " class="icon" transform="translate(901,619)"/>
<path d="M0 0 C4.65 1.62 8.52 4.1 12.62 6.75 C18.27 10.35 23.94 13.69 29.96 16.65 C32.32 18.22 33.07 19.35 34 22 C33.87 27.63 31.34 30.72 28 35 C23.52 34.49 21.22 32.9 17.81 30 C16.85 29.19 15.89 28.37 14.9 27.54 C11.39 24.47 7.93 21.34 4.49 18.2 C1.19 15.28 -2.27 12.59 -5.77 9.92 C-8.22 7.81 -10.12 5.63 -12 3 C-12 2.34 -12 1.68 -12 1 C-4.38 1 0.21 5.47 6 10 C7.68 11.27 9.36 12.52 11.05 13.78 C13.37 15.51 15.69 17.26 18 19 C13.18 13.12 7.85 8.02 2.16 3 C1.45 2.34 0.73 1.68 0 1 C0 0.67 0 0.34 0 0 Z " class="icon" transform="translate(843,641)"/>
<path d="M0 0 C4.42 1.51 7.95 3.9 11.69 6.62 C12.3 7.07 12.92 7.51 13.56 7.96 C17.28 10.65 20.78 13.49 24.25 16.5 C28.36 19.9 31.42 20.64 36.61 21.33 C42.35 22.94 46.15 28.64 49.5 33.31 C51 36 51 36 51 39 C50.34 39.16 50.34 39.16 47 40 C47.06 40.93 47.12 41.86 47.19 42.81 C47 46 47 46 45.76 47.7 C43.5 49.37 42.45 49.28 39.69 48.94 C33.76 48.03 30.38 45.38 26.19 41.19 C23.72 37.59 23 35.35 23 31 C24.5 29.31 24.5 29.31 26 28 C25.62 24.61 24.38 23.05 21.9 20.79 C21.27 20.21 20.64 19.63 19.98 19.02 C19.31 18.42 18.63 17.81 17.94 17.19 C17.26 16.56 16.58 15.94 15.87 15.3 C11.79 11.57 7.66 7.88 3.42 4.33 C2 3 2 3 0 0 Z " class="icon" transform="translate(792,657)"/>
<path d="M0 0 C4.66 3.81 8.77 7.76 12.62 12.38 C13.13 12.97 13.64 13.57 14.16 14.19 C15.78 16.12 17.39 18.06 19 20 C19.55 20.66 20.1 21.32 20.67 22 C43.55 49.44 43.55 49.44 43 59 C34.27 55.17 29.24 45.16 24.25 37.5 C22.84 35.37 21.44 33.23 20.03 31.1 C19.34 30.06 18.66 29.02 17.96 27.95 C15.28 23.92 12.56 19.92 9.81 15.94 C9.6 15.63 9.6 15.63 8.54 14.09 C6.91 11.73 5.29 9.39 3.59 7.09 C0 2.2 0 2.2 0 0 Z " class="icon" transform="translate(764,672)"/>
<path d="M0 0 C3.63 1.87 5.69 4.07 7 8 C7.53 14.87 5.8 19.93 1.56 25.31 C-1.89 28.93 -3.41 29.85 -8.38 30.31 C-13.08 29.91 -16.42 28.74 -19.64 25.19 C-22.04 21.33 -21.59 17.39 -21 13 C-19.3 7.64 -16.75 4.12 -12 1 C-8.27 -0.86 -4.06 -0.57 0 0 Z " class="icon" transform="translate(445,705)"/>
<path d="M0 0 C7.66 1.7 12.02 5.02 17 11 C17.55 11.63 18.11 12.26 18.68 12.91 C20.93 15.86 22 17.91 22 21.67 C20.88 28.97 18.06 34.91 14 41 C8.8 40.48 3.94 39.56 0 36 C-4.82 27.27 -8.36 18.08 -7 8 C-4.62 5 -4.62 5 -2 3 C-1.34 2.01 -0.68 1.02 0 0 Z " class="icon" transform="translate(849,715)"/>
<path d="M0 0 C8.21 1.32 15.38 7.19 20.5 13.56 C24.14 18.76 26.48 23.05 25.5 29.56 C23.29 36.18 17.9 40.66 11.94 44 C6.94 45.15 3.79 45.35 -0.69 42.62 C-5.23 38.36 -7.89 31.7 -8.5 25.56 C-8.53 25.26 -8.53 25.26 -8.69 23.72 C-9.06 17.1 -7.54 1.7 0 0 Z " class="icon" transform="translate(812.5,736.4375)"/>
<path d="M0 0 C2.41 2.41 2.48 3.62 3.09 6.93 C5.52 19.31 8.69 30.49 14.06 41.94 C17.73 49.74 21.09 57.32 23.25 65.69 C23.44 66.42 23.63 67.16 23.83 67.92 C25.26 73.94 26.09 79.69 23.38 85.44 C21 88 21 88 18.06 89.06 C14.16 88.98 12.92 88.62 10 86 C2.02 74.25 1.06 58.63 0.43 44.82 C0.41 44.34 0.41 44.34 0.29 41.9 C0.2 39.86 0.11 37.83 0.02 35.8 C-0.12 32.71 -0.27 29.62 -0.43 26.53 C-0.52 24.55 -0.61 22.56 -0.7 20.57 C-0.74 19.66 -0.79 18.75 -0.83 17.81 C-1.09 11.79 -0.76 5.99 0 0 Z M6 37 C6.98 59.8 6.98 59.8 13 68 C13.99 68 14.98 68 16 68 C15.76 57.33 13.07 45.92 7 37 C6.67 37 6.34 37 6 37 Z " class="icon" transform="translate(598,741)"/>
<path d="M0 0 C3.83 1.05 6.27 2 8.5 5.44 C10.18 10.8 9.27 14.3 6.87 19.16 C3.7 24.43 -0.62 30.2 -6.5 32.44 C-10.57 32.95 -14.14 32.95 -18 31.5 C-20.83 27.61 -20.89 23.08 -20.2 18.42 C-17.94 10.86 -8.75 -2.14 0 0 Z " class="icon" transform="translate(406.5,747.5625)"/>
<path d="M0 0 C1.75 0.06 1.75 0.06 4 1 C7.11 5.66 9.2 10.57 11.12 15.81 C11.38 16.51 11.64 17.22 11.91 17.94 C15.37 27.55 18.41 38.56 14.69 48.5 C11.77 52.82 11.77 52.82 10 54 C6.25 54.58 4.31 54.15 0.88 52.5 C-4.89 47.48 -7.12 40.46 -8 33 C-8.8 20.2 -7.44 10.53 0 0 Z M1 7 C-2.74 11.25 -3.8 15.82 -4.31 21.38 C-3.87 26.55 -3.07 31.73 0.54 35.68 C2.19 37.06 2.19 37.06 5 39 C6.47 37.97 6.47 37.97 8 36 C8.33 33.39 8.47 31.1 8.44 28.5 C8.43 27.79 8.43 27.08 8.42 26.35 C8.24 20.17 7.11 14.43 4 9 C3.01 8.34 2.02 7.68 1 7 Z " class="icon" transform="translate(565,789)"/>
<path d="M0 0 C4.58 3.15 4.58 3.15 6 6 C6.76 12.84 6.17 17.48 2 23 C-0.75 25.24 -2.51 25.92 -6 26.5 C-10.03 25.83 -11.43 24.08 -14 21 C-15.34 18.32 -15.21 16.18 -15.25 13.19 C-15.28 12.15 -15.3 11.11 -15.33 10.04 C-14.95 6.58 -14.07 4.78 -12 2 C-7.69 -0.87 -4.96 -1.58 0 0 Z " class="icon" transform="translate(434,799)"/>
<path d="M0 0 C3.79 1.72 5.48 3.16 7 7 C7.33 11.68 6.63 15.12 3.88 18.94 C0.51 21.35 -1.89 22.42 -6 23 C-9.38 21.81 -9.38 21.81 -12 20 C-13.24 16.28 -13.54 12.87 -13 9 C-11.19 5.69 -11.19 5.69 -9 3 C-8.77 2.69 -8.77 2.69 -7.62 1.12 C-5.03 -0.67 -3.07 -0.37 0 0 Z " class="icon" transform="translate(482,799)"/>
<path d="M0 0 C4.19 1.88 5.75 3.95 8 8 C11.13 17.24 13.04 29.81 9 39 C6.83 41.61 5.42 42.73 2.07 43.37 C-1.69 43.61 -3.61 43.24 -6.88 41.25 C-11.94 35.89 -11.49 30.1 -11.31 23.12 C-10.77 13.46 -6.81 6.68 0 0 Z M0 6 C-2.74 12.6 -3.9 18.85 -3 26 C-2.34 26.99 -1.68 27.98 -1 29 C2.88 27.25 2.88 27.25 4 25 C4.55 17.97 4.4 12.24 1 6 C0.67 6 0.34 6 0 6 Z " class="icon" transform="translate(523,805)"/>
<path d="M0 0 C3.84 2.39 5.65 3.91 7.06 8.25 C6.97 13.61 6.03 18.35 2.71 22.68 C0.08 25.17 -2.02 26 -5.56 26.62 C-9.88 25.84 -11.31 24.4 -14 21 C-15.67 15.99 -15.58 11.67 -13.88 6.75 C-10.4 1.66 -6.24 -1.17 0 0 Z " class="icon" transform="translate(472,833)"/>
<path d="M0 0 C9.06 4.06 13.16 14.22 17.62 22.62 C18.18 23.67 18.74 24.72 19.32 25.8 C22.84 32.9 22.84 32.9 21.8 36.37 C20.62 38.62 20.62 38.62 19.62 39.62 C17.31 40.06 17.31 40.06 14.62 39.62 C12.31 36.62 12.31 36.62 10.62 33.62 C10.18 34.02 9.73 34.42 9.27 34.83 C2.08 41.13 2.08 41.13 -1.38 42.62 C-3.62 42.25 -3.62 42.25 -5.38 40.62 C-6.12 37 -6.12 37 -6.38 33.62 C-7.7 34.28 -7.7 34.28 -14.38 37.62 C-17.65 34.35 -17.81 34.06 -17.81 29.75 C-17.51 19.69 -14.54 9.9 -7.38 2.62 C-3.89 -0.43 -3.89 -0.43 0 0 Z " class="icon" transform="translate(573.375,851.375)"/>
<path d="M0 0 C7.36 3.86 10.37 11.52 13 19 C14.6 25.47 14.44 30.23 11 36 C10.5 36.16 10.5 36.16 8 37 C5.31 35.06 5.31 35.06 3 33 C2.73 33.62 2.46 34.24 2.19 34.88 C1 37 1 37 -2 39 C-5.68 38.87 -8.17 38.56 -11.25 36.5 C-15.78 30.02 -16.87 22.76 -16 15 C-14.91 8.91 -12.83 4.79 -7.82 1.04 C-4.87 -0.64 -3.31 -0.83 0 0 Z " class="icon" transform="translate(520,854)"/>
</svg>
